<?xml version="1.0" encoding="UTF-8" standalone="no"?>
<svg
   version="1.0"
   width="300"
   height="200"
   id="svg1107"
   sodipodi:docname="lionwiki-t2t_logo.svg"
   inkscape:version="1.1.1 (1:1.1+202109281949+c3084ef5ed)"
   xmlns:inkscape="http://www.inkscape.org/namespaces/inkscape"
   xmlns:sodipodi="http://sodipodi.sourceforge.net/DTD/sodipodi-0.dtd"
   xmlns="http://www.w3.org/2000/svg"
   xmlns:svg="http://www.w3.org/2000/svg"
   xmlns:rdf="http://www.w3.org/1999/02/22-rdf-syntax-ns#"
   xmlns:cc="http://creativecommons.org/ns#"
   xmlns:dc="http://purl.org/dc/elements/1.1/">
  <metadata
     id="metadata1147">
    <rdf:RDF>
      <cc:Work
         rdf:about="">
        <dc:format>image/svg+xml</dc:format>
        <dc:type
           rdf:resource="http://purl.org/dc/dcmitype/StillImage" />
        <dc:title />
      </cc:Work>
    </rdf:RDF>
  </metadata>
  <sodipodi:namedview
     pagecolor="#ffffff"
     bordercolor="#666666"
     borderopacity="1"
     objecttolerance="10"
     gridtolerance="10"
     guidetolerance="10"
     inkscape:pageopacity="0"
     inkscape:pageshadow="2"
     inkscape:window-width="1280"
     inkscape:window-height="975"
     id="namedview1145"
     showgrid="false"
     units="px"
     inkscape:zoom="16.045531"
     inkscape:cx="109.31392"
     inkscape:cy="86.285706"
     inkscape:window-x="0"
     inkscape:window-y="24"
     inkscape:window-maximized="1"
     inkscape:current-layer="layer3"
     inkscape:document-rotation="0"
     inkscape:pagecheckerboard="0" />
  <defs
     id="defs3">
    <inkscape:path-effect
       effect="simplify"
       id="path-effect8158"
       is_visible="true"
       lpeversion="1"
       steps="1"
       threshold="0.000408163"
       smooth_angles="360"
       helper_size="0"
       simplify_individual_paths="false"
       simplify_just_coalesce="false" />
    <inkscape:path-effect
       effect="simplify"
       id="path-effect4117"
       is_visible="true"
       lpeversion="1"
       steps="1"
       threshold="0.000408163"
       smooth_angles="360"
       helper_size="0"
       simplify_individual_paths="false"
       simplify_just_coalesce="false" />
    <inkscape:path-effect
       effect="simplify"
       id="path-effect1301"
       is_visible="true"
       lpeversion="1"
       steps="1"
       threshold="0.000408163"
       smooth_angles="360"
       helper_size="0"
       simplify_individual_paths="false"
       simplify_just_coalesce="false" />
    <inkscape:path-effect
       effect="simplify"
       id="path-effect1297"
       is_visible="true"
       lpeversion="1"
       steps="1"
       threshold="0.000408163"
       smooth_angles="360"
       helper_size="0"
       simplify_individual_paths="false"
       simplify_just_coalesce="false" />
    <inkscape:path-effect
       effect="simplify"
       id="path-effect1227"
       is_visible="true"
       lpeversion="1"
       steps="1"
       threshold="0.000408163"
       smooth_angles="360"
       helper_size="0"
       simplify_individual_paths="false"
       simplify_just_coalesce="false" />
  </defs>
  <g
     inkscape:groupmode="layer"
     id="layer5"
     inkscape:label="fond"
     style="display:none">
    <rect
       style="fill:#f9f9f9;stroke-width:2.71875;-inkscape-stroke:none;paint-order:stroke fill markers;stop-color:#000000"
       id="rect417"
       width="293.19968"
       height="195.06447"
       x="3.823256"
       y="3.0736954"
       ry="10.870129" />
  </g>
  <g
     id="layer1" />
  <g
     transform="matrix(0.38611551,0,0,0.38611551,3.4688274,-55.786615)"
     id="g1859"
     style="fill:#f9f9f9">
    <path
       id="path867"
       style="fill:#f9f9f9;stroke:none;stroke-width:3;stroke-miterlimit:4;stroke-dasharray:none;paint-order:stroke fill markers;stop-color:#000000"
       d="m 96.275391,13.712891 c -2.922871,1.543829 -6.88289,3.566182 -10.699219,5.763671 -1.674697,0.08366 -3.668599,0.594408 -4.369141,0.75586 -2.614076,2.594291 -5.520803,4.74671 -8.417969,7.013672 -4.540335,3.7639 -7.086403,8.659833 -11.599609,12.451172 -2.469331,2.173246 -4.235043,4.85084 -5.503906,7.751953 -2.425268,3.489827 -4.378758,6.878013 -4.970703,10.658203 -0.594777,4.566343 -2.822298,7.077597 -3.779297,11.55664 -0.487012,1.83431 -0.570761,4.035472 0.787109,3.603516 -1.197186,3.174543 -2.286693,6.386529 -3.126953,9.669922 -0.7467,3.513716 -1.062188,7.10981 -1.0625,10.699219 -2.448178,4.633798 4.438133,6.672281 7.03125,3.302734 4.096732,-1.462258 6.076937,-5.39971 6.015625,-9.574219 0.887355,-6.294697 0.632526,-12.637335 0.650391,-18.972656 1.317018,-2.420914 2.6234,-4.930649 3.732422,-7.701172 2.736148,-6.310835 5.186915,-13.932947 8.585937,-20.68164 0.04363,-0.02489 0.09348,-0.05348 0.136719,-0.07813 4.538569,-2.923679 5.860788,-6.622808 9.707031,-10.371094 2.858019,-2.388997 7.016649,-5.314325 8.703125,-8.578125 0.151332,-0.642635 -0.09154,-1.034158 -0.554687,-1.261719 3.185961,-1.916828 6.787338,-4.43471 8.734375,-6.007812 z m -30.355469,23.36914 c -0.713397,0.934688 -1.397605,1.889549 -2.056641,2.859375 -0.227726,0.179592 -0.453009,0.361854 -0.683593,0.539063 0.738642,-1.249536 1.642367,-2.39556 2.740234,-3.398438 z M 50.623047,83.287109 c -0.126603,3.10289 -0.380168,6.197421 -0.839844,9.269532 -0.35822,-1.160447 -0.297042,-2.625233 0.166016,-3.685547 0.03343,-1.989348 0.280192,-3.83152 0.673828,-5.583985 z m 2.914062,10.535157 c 0.04118,-0.0092 0.02592,0.01954 -0.06445,0.09375 -0.286003,0.167736 -0.550805,0.275294 -0.804687,0.359375 0.406887,-0.225328 0.789606,-0.4353 0.86914,-0.453125 z"
       transform="matrix(2.5296894,0,0,2.5296894,0.07293209,150.53907)" />
    <path
       d="m 362.38219,364.24319 c -35.62746,-31.55576 -33.5916,-31.55576 -33.5916,-31.55576"
       style="fill:#f9f9f9;fill-opacity:0.75;fill-rule:evenodd;stroke:#4d4d4d;stroke-width:0.281249;stroke-linecap:butt;stroke-linejoin:miter;stroke-miterlimit:4;stroke-opacity:1"
       id="path1209" />
    <path
       d="m 410.22479,334.72329 -2.03586,-86.52384"
       style="fill:#f9f9f9;fill-opacity:0.75;fill-rule:evenodd;stroke:#4d4d4d;stroke-width:2.5;stroke-linecap:butt;stroke-linejoin:miter;stroke-miterlimit:4;stroke-opacity:1"
       id="path1210" />
    <path
       d="M 416.33235,335.74122 428.54748,203.41064"
       style="fill:#f9f9f9;fill-opacity:0.75;fill-rule:evenodd;stroke:#4d4d4d;stroke-width:2.5;stroke-linecap:butt;stroke-linejoin:miter;stroke-miterlimit:4;stroke-opacity:1"
       id="path1211" />
    <path
       d="m 476.39007,214.60784 -44.78881,126.22301 v 1.01793"
       style="fill:#f9f9f9;fill-opacity:0.75;fill-rule:evenodd;stroke:#4d4d4d;stroke-width:2.5;stroke-linecap:butt;stroke-linejoin:miter;stroke-miterlimit:4;stroke-opacity:1"
       id="path1213" />
    <path
       d="m 437.70883,344.90256 40.7171,-81.4342"
       style="fill:#f9f9f9;fill-opacity:0.75;fill-rule:evenodd;stroke:#4d4d4d;stroke-width:2.5;stroke-linecap:butt;stroke-linejoin:miter;stroke-miterlimit:4;stroke-opacity:1"
       id="path1214" />
    <path
       d="M 518.1251,233.94846 444.83432,347.95635"
       style="fill:#f9f9f9;fill-opacity:0.75;fill-rule:evenodd;stroke:#4d4d4d;stroke-width:2.5;stroke-linecap:butt;stroke-linejoin:miter;stroke-miterlimit:4;stroke-opacity:1"
       id="path1215" />
    <path
       d="m 452.97774,351.01013 54.96809,-68.20115"
       style="fill:#f9f9f9;fill-opacity:0.75;fill-rule:evenodd;stroke:#4d4d4d;stroke-width:2.5;stroke-linecap:butt;stroke-linejoin:miter;stroke-miterlimit:4;stroke-opacity:1"
       id="path1216" />
    <path
       d="M 408.837,268.51801 Z"
       style="color:#000000;display:block;visibility:visible;fill:#f9f9f9;fill-opacity:0.75;fill-rule:evenodd;stroke:#4d4d4d;stroke-width:0.281249;stroke-linecap:butt;stroke-linejoin:miter;stroke-miterlimit:4;stroke-dashoffset:0;stroke-opacity:1;marker:none;marker-start:none;marker-mid:none;marker-end:none"
       id="path1840" />
    <path
       d="M 381.48523,205.17707 400.1996,338.337 v 0"
       style="color:#000000;display:block;visibility:visible;fill:#f9f9f9;fill-opacity:0.75;fill-rule:evenodd;stroke:#4d4d4d;stroke-width:2.5;stroke-linecap:butt;stroke-linejoin:miter;stroke-miterlimit:4;stroke-dashoffset:0;stroke-opacity:1;marker:none;marker-start:none;marker-mid:none;marker-end:none"
       id="path1842" />
    <path
       d="m 338.29822,218.13317 48.94527,125.24232"
       style="color:#000000;display:block;visibility:visible;fill:#f9f9f9;fill-opacity:0.75;fill-rule:evenodd;stroke:#4d4d4d;stroke-width:2.5;stroke-linecap:butt;stroke-linejoin:miter;stroke-miterlimit:4;stroke-dashoffset:0;stroke-opacity:1;marker:none;marker-start:none;marker-mid:none;marker-end:none"
       id="path1843" />
    <path
       d="m 370.68847,252.68277 24.47264,89.25315"
       style="color:#000000;display:block;visibility:visible;fill:#f9f9f9;fill-opacity:0.75;fill-rule:evenodd;stroke:#4d4d4d;stroke-width:2.5;stroke-linecap:butt;stroke-linejoin:miter;stroke-miterlimit:4;stroke-dashoffset:0;stroke-opacity:1;marker:none;marker-start:none;marker-mid:none;marker-end:none"
       id="path1844" />
    <path
       d="m 340.45757,269.23779 38.86831,77.01683"
       style="color:#000000;display:block;visibility:visible;fill:#f9f9f9;fill-opacity:0.75;fill-rule:evenodd;stroke:#4d4d4d;stroke-width:2.5;stroke-linecap:butt;stroke-linejoin:miter;stroke-miterlimit:4;stroke-dashoffset:0;stroke-opacity:1;marker:none;marker-start:none;marker-mid:none;marker-end:none"
       id="path1845" />
    <path
       d="m 299.42991,239.00689 72.69813,112.28622"
       style="color:#000000;display:block;visibility:visible;fill:#f9f9f9;fill-opacity:0.75;fill-rule:evenodd;stroke:#4d4d4d;stroke-width:2.5;stroke-linecap:butt;stroke-linejoin:miter;stroke-miterlimit:4;stroke-dashoffset:0;stroke-opacity:1;marker:none;marker-start:none;marker-mid:none;marker-end:none"
       id="path1846" />
    <path
       d="m 308.7871,288.67195 59.74202,69.09921"
       style="color:#000000;display:block;visibility:visible;fill:#f9f9f9;fill-opacity:0.75;fill-rule:evenodd;stroke:#4d4d4d;stroke-width:2.5;stroke-linecap:butt;stroke-linejoin:miter;stroke-miterlimit:4;stroke-dashoffset:0;stroke-opacity:1;marker:none;marker-start:none;marker-mid:none;marker-end:none"
       id="path1847" />
    <path
       d="m 329.66082,334.0183 32.39025,30.23091"
       style="color:#000000;display:block;visibility:visible;fill:#f9f9f9;fill-opacity:0.75;fill-rule:evenodd;stroke:#4d4d4d;stroke-width:2.5;stroke-linecap:butt;stroke-linejoin:miter;stroke-miterlimit:4;stroke-dashoffset:0;stroke-opacity:1;marker:none;marker-start:none;marker-mid:none;marker-end:none"
       id="path1848" />
    <path
       d="M 358.45216,372.16683 330.3806,351.29311"
       style="color:#000000;display:block;visibility:visible;fill:#f9f9f9;fill-opacity:0.75;fill-rule:evenodd;stroke:#4d4d4d;stroke-width:2.5;stroke-linecap:butt;stroke-linejoin:miter;stroke-miterlimit:4;stroke-dashoffset:0;stroke-opacity:1;marker:none;marker-start:none;marker-mid:none;marker-end:none"
       id="path1849" />
    <path
       d="m 423.23267,339.05679 19.43415,-86.37402"
       style="color:#000000;display:block;visibility:visible;fill:#f9f9f9;fill-opacity:0.75;fill-rule:evenodd;stroke:#4d4d4d;stroke-width:2.5;stroke-linecap:butt;stroke-linejoin:miter;stroke-miterlimit:4;stroke-dashoffset:0;stroke-opacity:1;marker:none;marker-start:none;marker-mid:none;marker-end:none"
       id="path1850" />
    <path
       d="m 458.50205,354.89202 92.85207,-88.53336"
       style="color:#000000;display:block;visibility:visible;fill:#f9f9f9;fill-opacity:0.75;fill-rule:evenodd;stroke:#4d4d4d;stroke-width:2.5;stroke-linecap:butt;stroke-linejoin:miter;stroke-miterlimit:4;stroke-dashoffset:0;stroke-opacity:1;marker:none;marker-start:none;marker-mid:none;marker-end:none"
       id="path1851" />
    <path
       d="m 532.63975,308.1061 -68.37943,52.54419"
       style="color:#000000;display:block;visibility:visible;fill:#f9f9f9;fill-opacity:0.75;fill-rule:evenodd;stroke:#4d4d4d;stroke-width:2.5;stroke-linecap:butt;stroke-linejoin:miter;stroke-miterlimit:4;stroke-dashoffset:0;stroke-opacity:1;marker:none;marker-start:none;marker-mid:none;marker-end:none"
       id="path1852" />
    <path
       d="M 467.13946,364.96899 558.55195,312.4248"
       style="color:#000000;display:block;visibility:visible;fill:#f9f9f9;fill-opacity:0.75;fill-rule:evenodd;stroke:#4d4d4d;stroke-width:2.5;stroke-linecap:butt;stroke-linejoin:miter;stroke-miterlimit:4;stroke-dashoffset:0;stroke-opacity:1;marker:none;marker-start:none;marker-mid:none;marker-end:none"
       id="path1853" />
    <path
       d="M 471.45816,370.72726 551.35412,334.0183"
       style="color:#000000;display:block;visibility:visible;fill:#f9f9f9;fill-opacity:0.75;fill-rule:evenodd;stroke:#4d4d4d;stroke-width:2.5;stroke-linecap:butt;stroke-linejoin:miter;stroke-miterlimit:4;stroke-dashoffset:0;stroke-opacity:1;marker:none;marker-start:none;marker-mid:none;marker-end:none"
       id="path1854" />
    <path
       d="M 477.33002,379.28365 580.03186,342.73672"
       style="color:#000000;display:block;visibility:visible;fill:#f9f9f9;fill-opacity:0.75;fill-rule:evenodd;stroke:#4d4d4d;stroke-width:2.5;stroke-linecap:butt;stroke-linejoin:miter;stroke-miterlimit:4;stroke-dashoffset:0;stroke-opacity:1;marker:none;marker-start:none;marker-mid:none;marker-end:none"
       id="path1855" />
    <path
       d="m 526.1617,393.04055 79.89596,-17.99459"
       style="color:#000000;display:block;visibility:visible;fill:#f9f9f9;fill-opacity:0.75;fill-rule:evenodd;stroke:#4d4d4d;stroke-width:2.5;stroke-linecap:butt;stroke-linejoin:miter;stroke-miterlimit:4;stroke-dashoffset:0;stroke-opacity:1;marker:none;marker-start:none;marker-mid:none;marker-end:none"
       id="path1856" />
    <path
       d="m 495.93079,385.84271 66.22008,-20.15393"
       style="color:#000000;display:block;visibility:visible;fill:#f9f9f9;fill-opacity:0.75;fill-rule:evenodd;stroke:#4d4d4d;stroke-width:2.5;stroke-linecap:butt;stroke-linejoin:miter;stroke-miterlimit:4;stroke-dashoffset:0;stroke-opacity:1;marker:none;marker-start:none;marker-mid:none;marker-end:none"
       id="path1857" />
  </g>
  <g
     inkscape:groupmode="layer"
     id="layer2"
     inkscape:label="Layer 1">
    <path
       style="font-variation-settings:normal;display:inline;fill:#ffeeaa;fill-opacity:1;stroke:#fff6d5;stroke-width:0.0243496;stroke-linecap:butt;stroke-linejoin:miter;stroke-miterlimit:4;stroke-dasharray:none;stroke-dashoffset:0;stroke-opacity:1;paint-order:stroke fill markers;stop-color:#000000"
       d="m 142.80486,92.296668 c 0.8472,-11.021654 12.96759,-18.736205 25.46627,-16.209103 5.03733,1.018495 9.55072,3.563336 12.58047,7.049629 1.85079,2.129685 1.66112,1.680561 3.33992,4.456588 0,0 0.72332,1.902232 -0.20609,2.618611 -0.92942,0.71638 -6.38439,1.579671 -6.38439,1.579671 -0.17073,0.04224 0.65136,-0.362041 -5.43659,0.310548 -6.19551,0.684472 -12.755,1.210411 -17.27489,1.409564 -4.51988,0.199155 -10.86144,-0.196064 -11.32331,-0.19601 l -0.83976,9.7e-5 z"
       id="path6390"
       sodipodi:nodetypes="sssczsssscs" />
    <path
       id="path1175"
       d="m 74.446298,190.99631 c -12.025058,-4.66213 7.71416,-2.89953 11.873052,-3.15666 51.74368,-0.17124 103.54507,-1.73121 155.21843,-3.09954 -7.51773,5.03467 -21.18885,2.65803 -31.24553,3.62005 -45.27593,1.17305 -90.56605,1.84128 -135.845952,2.63615 z m -6.660492,-5.31209 c 1.731353,-1.64172 16.584217,0.44464 8.15974,-5.44202 -2.516311,3.62183 -6.647569,-5.26464 -11.893941,-2.01891 -11.469734,-4.34589 11.360187,1.3002 8.001804,-7.1207 5.04068,-8.87547 18.616335,1.94269 21.825225,-10.70174 4.11491,-7.84829 5.561234,-17.76722 2.836435,-26.2124 -4.208686,2.68257 -5.208442,0.13558 -7.213035,-2.04597 -3.929385,6.06287 -6.392096,2.05886 -8.786517,-2.05891 -2.874986,8.4386 -5.482775,-3.67823 -11.089118,-0.82233 0.790884,-4.55644 6.616452,-10.37132 -2.613358,-11.05461 -8.688622,-1.37689 -4.847683,15.8927 -14.023406,8.85856 -9.020423,-5.33513 -11.188576,-15.34931 -7.54328,-24.49947 -7.22134,4.88843 -13.267307,-7.012364 -2.670826,-6.632975 6.850727,-1.01948 1.87571,-15.647018 4.994215,-21.855786 C 51.979793,46.700046 72.127717,22.283509 98.864158,14.351365 107.14497,12.122286 116.93751,9.7841479 125.00465,13.14553 104.83177,14.216051 86.130964,25.979647 74.046047,41.829001 63.148713,56.918264 59.018099,76.382822 61.243735,94.668093 c 4.01025,-1.499132 15.855713,2.861159 5.922861,6.846877 -8.50809,2.36155 12.570411,6.49707 3.614728,0.9143 1.889626,-4.222582 5.666755,-15.251207 -2.661865,-14.498568 -5.485747,-3.209921 10.418138,-6.379505 2.634196,-10.669147 -0.123279,-8.294518 11.484508,-12.589744 8.481966,-21.604066 -2.354401,-6.262717 10.662039,-3.031324 7.724206,-9.09987 5.68191,0.422584 9.825971,-6.467214 12.971592,-2.51801 3.668431,-6.442306 6.506041,2.49011 11.901451,1.429342 -0.64455,3.388974 5.70757,-0.33443 4.61063,5.198872 7.39803,2.338608 1.87821,17.535976 12.54162,16.686502 1.10667,7.173845 0.52216,19.631857 9.29008,23.302248 5.81739,-5.290079 10.97481,-14.944156 20.55321,-16.12716 6.76337,-0.904271 13.88553,0.574189 19.0159,4.664796 0.2025,0.161462 2.48606,2.032593 4.31244,3.998366 1.75054,1.884135 3.04705,3.865742 3.22896,4.035829 -0.40064,-0.182825 -0.27258,0.251474 -0.71239,0.05617 -0.11711,-0.052 -1.3711,-1.946149 -3.06629,-3.734617 -1.74196,-1.83779 -3.12399,-3.035474 -4.05289,-3.62674 -5.44349,-3.464947 -15.10238,-6.161369 -21.95052,-2.567599 -7.73836,2.258757 -20.13417,17.764878 -4.33992,16.128751 12.55517,1.878916 -7.76697,1.2363 -11.9197,-0.660929 -11.31405,-3.153298 1.18627,5.402949 6.17607,3.697388 5.59803,-2.182587 10.00104,8.682612 3.9595,3.181005 -5.17601,-4.171453 -2.06082,5.023147 -6.63857,-1.384919 -6.8014,-5.117749 2.90382,7.991226 -3.19664,1.365868 -3.97402,-7.684648 -14.31056,-4.047502 -6.435,3.012238 4.86135,8.15581 -9.15006,-0.77256 -4.9276,7.81241 1.94525,1.93803 5.58512,6.56189 0.93374,4.27934 -1.75849,-4.62184 -11.52735,-9.09048 -2.80817,-7.27568 -6.04242,-7.45532 12.22089,0.96455 3.89438,-6.19312 -6.27075,-1.431516 3.49855,-4.210841 -4.18136,-7.837126 -4.30382,-3.15807 11.36792,3.144428 3.76349,-2.457088 -1.3025,-2.817524 -9.04235,-9.461324 -8.91062,-4.026819 6.33265,5.556203 0.67706,2.725957 -2.88823,5.199776 0.90173,2.320639 7.9487,8.043397 2.34973,6.319846 1.17913,-3.217142 -9.41163,-6.65889 -3.22613,-9.846007 7.85297,1.71385 -5.8216,-7.226881 3.08893,-5.693073 -2.8118,-2.97958 -7.43991,-6.104976 -1.35172,-4.074858 -0.5242,-7.930983 -6.93426,-8.461887 -7.56666,-0.250257 -3.43536,7.580652 -14.338347,14.235403 -18.424009,3.39906 -5.173816,-6.042527 -11.252789,-9.829865 -8.334342,-19.061303 2.340084,6.313671 4.843819,16.797449 12.156476,17.355845 9.417435,-2.089101 -7.04911,-9.122971 2.741482,-7.57403 6.442403,-0.733924 6.540773,0.770046 2.943653,4.709597 2.2231,7.227102 10.73425,0.480942 7.31346,-4.352151 6.55582,0.928144 4.13198,-16.824377 6.1569,-3.86107 5.11001,5.992818 3.40052,18.014365 14.71374,16.343995 -1.51507,-2.320225 -4.41076,-4.322852 -3.60844,-7.288037 -5.59542,-3.477863 -2.97436,-3.53378 1.17483,-3.988613 -1.87421,-3.443127 -13.63565,-7.268605 -3.50333,-4.52959 3.86337,-2.826771 -7.1133,-2.287275 -4.438,-7.358234 -6.34771,-0.69273 3.84114,-11.303875 -5.61548,-8.549926 -3.54812,3.30994 2.50422,-7.481713 -3.65538,-4.692655 -3.51357,2.060734 -0.0714,-7.293675 -5.27903,-1.506267 -1.70132,3.279838 -2.41436,-9.559741 -5.844102,-1.506141 -1.647531,6.708642 -4.677512,-5.582608 -5.911046,2.232297 -7.113831,-5.31061 0.578996,5.397547 -6.390467,4.470472 -1.538767,3.053915 -7.821781,-0.536476 -1.67251,2.435621 -3.149844,5.628737 -4.320666,0.771535 -4.948487,-0.894735 -1.111703,4.47321 6.243963,6.857543 -0.903695,8.044946 -1.077224,5.793376 -5.197717,9.309074 -6.531333,13.235274 9.693951,-2.190592 0.54928,5.516668 -0.559598,8.876872 -8.609638,-0.396409 0.04656,4.615652 3.723792,2.520177 -2.37321,5.019668 1.792625,4.400022 -1.914002,10.427764 -2.675843,8.394628 8.870278,-8.061371 3.298036,1.591517 -2.242818,5.172221 -0.620001,6.290681 2.979716,2.596521 -3.572936,3.9398 -4.443318,18.70646 -0.18395,7.23306 1.630319,-9.009993 1.730358,1.03327 0.648589,4.27501 4.502022,-1.20923 -0.36815,12.40675 5.437642,4.77244 1.20841,-0.80498 1.234801,9.16461 3.528934,1.50756 -0.403955,2.50868 1.541299,16.44593 4.724153,10.99281 0.287174,-4.26307 -2.967517,-12.87231 1.259938,-6.29493 3.024304,-13.44049 -1.661031,19.03682 4.86445,5.83876 1.56814,-4.05767 0.0153,-11.14689 2.85716,-3.28892 5.25271,7.96312 -0.27125,-15.00063 3.10872,-3.55059 0.61171,3.98574 5.09213,14.98304 4.59965,4.64943 -1.70984,-4.10655 -2.38263,-11.60036 0.66082,-2.97813 3.34151,6.04532 1.7342,-10.31674 4.07842,-1.463 5.85584,10.07785 -1.23252,-15.50838 3.87483,-6.27437 1.6286,-2.93415 -3.23785,-9.66541 2.48861,-3.82783 6.44654,3.34973 -5.76329,1.92018 -2.44071,9.15636 2.25602,7.42431 0.18957,7.11351 -4.94223,5.39475 -1.90685,5.33881 -6.70882,12.86944 -8.18157,3.54899 -5.26892,-4.87375 -5.29233,5.68253 -7.562043,7.01035 -0.423905,7.02671 3.245493,-2.7298 2.541033,4.80278 -0.40701,6.56283 -1.88148,16.34605 -5.820259,19.72196 2.604504,-9.45774 -0.947848,-0.0882 -2.466756,3.04037 -3.018606,3.15283 -10.570422,4.00566 -14.15235,7.53382 5.484628,8.51017 8.700229,-3.68115 14.517174,-6.68916 0.725743,4.16518 -10.996376,10.45517 -1.064759,11.77981 3.64439,1.28265 4.270036,-15.13109 7.18871,-10.14638 -6.320457,7.96696 4.08081,7.75155 8.98672,5.93685 -5.61849,-0.59997 -8.39136,-5.29464 -4.16663,-10.22898 0.98654,-3.50891 -5.965559,0.79434 -0.78103,-4.22944 2.47195,-2.17572 -5.524852,0.52511 -0.39463,-3.59723 4.02168,-1.33132 -1.39913,-3.54108 4.50619,-5.2126 -6.21918,-1.84676 7.99848,-4.66067 0.65214,-4.70076 4.86746,-0.69177 5.83946,-12.18749 6.71906,-2.21599 1.22428,2.51874 7.2444,12.13888 7.60344,10.31786 -1.74743,-4.94392 -4.86649,-12.07494 0.54333,-7.15778 -1.10656,-3.14282 -4.59164,-11.02878 0.45726,-4.89536 0.78887,5.5028 8.75374,12.41377 4.34136,2.22134 -0.93707,-3.49911 -9.89043,-14.34145 -1.22159,-6.65728 4.3413,4.50438 8.08754,2.43557 2.96155,-2.52506 -4.10464,-3.75469 -4.07921,-3.98801 0.77799,-1.55954 -0.37195,-3.51429 -5.94668,-10.47834 0.59851,-3.89465 5.33087,2.85008 13.43638,12.57795 9.11825,1.76724 5.47536,1.11752 1.37877,17.51374 5.6716,6.98108 0.50762,-3.90665 -0.52754,-11.68618 2.37021,-3.65162 2.22959,9.49542 2.13044,-6.55118 0.57616,-7.93221 4.9457,-0.72558 18.83351,-12.0441 18.04069,-8.40627 -4.81131,2.36824 -14.73561,7.47102 -15.34538,11.02854 8.65393,-4.23755 16.45562,-10.41909 26.29186,-12.09871 5.96264,3.34989 -13.08484,3.00851 -14.33906,10.89293 -3.58445,2.70921 -7.2147,12.70205 -0.5277,6.53235 -1.78807,3.13219 -7.89934,12.57926 -0.68882,5.88454 4.92622,-1.3843 -10.52608,12.50251 -0.45726,6.46862 3.83607,-6.72285 6.80248,4.80224 7.20265,7.686 -1.98114,8.24203 -7.08102,13.75214 -14.99881,16.07414 0.96747,-0.41422 -10.94795,-1.03461 -4.28964,3.64392 2.85344,5.44535 7.31575,-7.634 10.25129,-2.87888 -1.62695,2.41378 -5.84378,10.40281 -0.2388,5.58121 0.96373,-0.68919 4.37347,-12.62096 6.5617,-4.08796 3.73092,3.33137 15.39805,-2.0055 5.44162,-0.5829 -9.05096,2.0431 3.27635,-10.01037 -2.46098,-5.72765 0.54007,-5.7214 2.11027,-8.6814 6.09277,-2.84137 9.62198,4.39745 -8.86316,-11.55021 2.59793,-4.52547 4.16481,1.97037 11.32025,-0.17562 2.80737,-2.07585 -4.37154,-0.304 -11.66574,-10.25838 -3.15315,-4.62351 10.45042,5.78415 0.37212,-3.28583 -2.26858,-7.48789 -4.45959,-5.14819 5.66279,5.7328 6.5837,-1.732 2.11383,-2.276 12.05938,-8.43066 3.42185,-3.95434 -7.80277,9.0241 -3.47569,-5.38675 -2.81853,-7.12167 0.72602,5.12172 1.57656,7.35399 2.02312,0.59851 0.01,-9.16617 0.90612,1.03178 3.04935,1.85439 1.93809,-4.09468 -7.83415,-18.16586 -0.78667,-8.98584 1.40939,3.02196 4.87332,15.59572 7.44113,12.51246 -0.0647,-6.36627 3.42294,8.86217 1.57591,9.62891 4.98901,-1.7841 4.29809,-15.45603 5.32951,-4.52771 0.3317,4.13086 -7.66734,11.82926 0.14465,5.90367 2.48475,-3.80727 4.39663,-11.57828 4.34545,-2.1089 -1.93086,11.75372 3.66555,0.482 1.8577,-5.3244 3.45503,5.61642 12.93994,9.2388 21.16126,6.10495 3.63049,0.48723 6.40035,17.4334 1.33637,6.11135 -3.04761,-3.84594 3.2338,8.88965 -1.80974,11.20874 -6.71452,4.63709 5.75057,-8.72766 -2.58378,-11.82281 -4.88549,1.29771 -15.34704,-3.46438 -16.21439,2.0062 -3.53469,4.5653 -9.19801,-8.35468 -14.24557,0.53046 -2.26474,-2.23628 -0.86007,-6.38538 -2.84235,-8.44957 7.70594,-12.34858 -16.18167,-4.66844 -9.94301,2.94735 7.19437,-0.085 -0.28851,6.52902 5.8263,8.9423 2.41439,5.02898 -10.66143,0.36544 -5.08061,6.33172 -2.85156,2.09915 -16.16675,-0.25317 -8.02404,3.88215 8.3276,5.28477 18.14549,3.51789 27.49927,3.46803 6.74759,2.23117 8.93278,-5.87009 14.43631,-7.00574 7.17256,1.0391 5.75223,1.09454 2.14192,5.36371 5.21606,6.84385 7.92508,-3.09873 12.42605,-4.99238 -0.0721,4.10146 -8.88848,9.0711 0.82036,9.15865 3.20715,-0.70659 1.73522,-19.44748 3.68415,-7.7381 -3.368,7.53975 6.43229,7.93256 6.41656,2.33892 -5.05521,-2.30608 -3.72728,-12.27472 2.94883,-9.02841 -8.86772,-3.8692 1.87328,-5.67658 2.93087,-7.581 -2.16498,-2.72194 -15.46744,2.86091 -10.06664,-1.3552 4.06089,0.51973 7.84621,-8.99179 1.63042,-3.25011 -8.93072,4.65262 -1.89815,-10.10185 -10.34075,-5.65725 -3.09762,3.60423 -18.59032,-2.98181 -10.43212,-2.11971 4.85614,2.87665 13.6543,-5.13847 3.67589,-2.292 -4.4454,0.38029 -14.25052,-9.07894 -5.39403,-3.13233 6.08406,3.68998 12.08752,-8.24225 3.35304,-2.66006 -3.4118,-2.22901 -12.55725,-6.46818 -11.88669,-6.02788 3.67893,-1.78037 -5.42771,-6.85899 1.43222,-4.57299 -2.37772,-3.2518 -8.80709,-8.12558 -0.89755,-3.48981 -0.99132,-4.14604 -9.74375,-7.20705 -0.60447,-5.10851 3.82074,2.36884 5.5177,21.29242 5.46213,8.06537 -0.85418,-10.63443 -12.91344,-18.51225 -18.09333,-23.579367 4.73014,-0.401776 13.46936,2.161527 4.17402,1.414517 6.91043,3.4697 16.94536,6.50472 25.0214,9.62709 9.35352,3.82786 23.30686,2.1627 26.91711,-8.67824 2.17976,-9.610434 -6.83423,-15.832349 -12.9782,-20.939697 -4.76118,-3.005128 -13.28476,-8.850462 -13.82987,-12.939313 7.01394,10.034744 20.41755,13.663393 26.64845,24.320771 6.31233,10.714579 -5.17242,23.036619 -16.42334,21.484289 -10.36901,0.26799 -19.29495,-6.18789 -29.04335,-7.99227 6.28332,7.36363 8.20733,17.25857 11.65783,25.68888 4.23865,2.29105 13.64992,-6.2427 8.33073,3.54905 -2.38461,5.11222 7.99102,-2.00929 3.72045,5.91209 5.0907,1.19934 12.28166,4.65565 17.08824,6.6805 -7.73256,3.03898 10.19742,8.42682 1.13617,9.70445 -5.22934,1.03591 3.01595,8.02717 -5.78973,7.38673 -4.72457,2.59095 5.21073,10.88263 10.14552,7.58981 1.28461,5.03515 -14.04398,-0.49943 -6.69979,6.20554 -5.16592,1.88905 -15.21684,-4.77763 -15.17166,5.12432 -3.39542,-1.95143 -9.17981,-10.77048 -10.08329,-1.90123 5.08653,0.87241 9.86232,2.0626 1.46184,2.05937 -19.7592,0.15241 -39.63685,1.3024 -59.3039,1.39537 7.80794,-2.54445 19.01889,-1.27346 28.06339,-2.03002 8.78454,-0.99913 19.96609,1.07189 27.24383,-1.86541 -0.58581,-7.20962 -10.10802,-4.72166 -16.06768,-4.96697 -12.84907,0.51943 -25.90047,0.33533 -38.61887,1.46956 -2.57389,5.24244 -2.34691,10.86702 -9.35841,7.4031 -7.03059,0.72023 -14.37173,0.1692 -21.77462,0.66628 -12.21458,-0.0825 -24.49543,1.16735 -36.663602,0.4951 7.610332,-2.71115 18.298992,-0.9339 27.151682,-1.69979 9.60875,-0.25762 19.66099,-0.16684 29.01437,-0.24719 9.00166,-0.43889 -5.14543,-10.13798 -5.37814,-1.55033 -3.40724,-8.93342 -14.4859,-4.48539 -22.56884,-5.43269 -8.70386,0.16162 -17.40501,0.47292 -26.112484,0.38531 -4.860109,2.56082 -4.091167,13.11716 -10.078599,5.17679 -1.904877,-10.52576 -14.972255,5.54323 -2.131949,1.88399 6.073513,2.66262 -13.097103,1.68555 -17.00931,1.98591 l -1.051115,-0.0956 -1.194155,-0.62174 z m 67.884854,-11.18715 c 3.38844,-3.01266 16.57702,-10.71106 7.46457,-2.30202 3.53639,7.27443 1.73036,-2.97591 5.31957,-3.79644 8.97278,4.61826 21.09799,-10.18039 13.66303,-17.03358 -11.24469,3.31075 -2.59207,-11.26767 -3.44313,-17.34204 2.0608,-3.87033 7.00299,-10.13025 -0.19947,-4.48311 -6.98164,1.70981 -4.93211,9.49796 -5.4551,12.93809 -6.14088,-4.60697 -4.90801,8.98562 -9.99602,1.17142 -7.97223,0.99948 -1.06893,-8.67709 -8.19575,-9.08901 1.53892,5.35009 0.59812,14.52923 -3.44165,9.8776 0.11881,4.40723 8.85735,10.02634 -0.60348,8.35036 -7.89366,-7.29344 -5.11005,17.11256 -9.38292,4.56773 -3.16622,-13.38309 -11.56041,4.54083 -10.80413,10.42697 -1.55732,1.40196 -8.38117,1.20476 -2.68074,2.67153 7.85243,5.06472 18.08818,4.94846 27.75523,4.04249 z m 81.51119,-2.08844 c 5.7278,-7.1449 -5.30719,-2.5529 -0.83811,1.14591 l 0.62966,-0.45838 z M 77.633539,172.26671 c 7.40988,-7.17847 -8.933764,0.27619 -0.328373,0.36587 z m 149.811031,-6.08132 c -0.35005,-1.33178 -1.06026,1.44137 0,0 z m -120.66109,-4.24727 c 0.0169,-1.29835 -1.18539,1.28627 0,0 z m 2.4826,-0.86876 c -0.45493,-3.15693 -0.44267,3.93185 0,0 z m 57.76314,-1.23104 c 2.84252,-2.41236 -0.12311,-6.59011 -1.24103,0.3592 -0.82385,1.41568 1.67104,-0.23757 1.24103,-0.3592 z m -56.92376,-2.2619 c -1.54554,0.36007 0.84405,2.95955 0,0 z m -11.25477,-3.32843 c -1.476811,-0.81269 -1.308781,6.59605 0,0 z m 12.33447,1.8984 c 2.85266,-2.04082 6.56537,-12.352 1.55592,-5.40562 -0.86919,0.26284 -4.05691,9.20084 -1.55592,5.40562 z m 57.56985,-0.98447 c -3.26424,-7.50633 -2.68412,-0.35463 0,0 z m -69.631189,-3.35933 c -0.669815,-0.12484 0.405371,2.57997 0,0 z m 129.479089,0.954 c 0.48417,-3.15556 -7.4834,-1.57952 -8.84847,-1.1856 -0.36579,0.38462 -1.92623,0.92519 2.752,0.59901 3.58778,-1.01616 2.09452,-0.0619 6.09647,0.58659 z m -11.47958,-1.11074 c -2.22623,-0.29633 -0.94418,0.55133 0,0 z m 22.8311,-4.70331 c -1.00661,-4.59894 -3.24531,1.11191 0,0 z M 86.657201,131.77285 c -0.02857,-4.26711 4.90371,-1.44547 0.894209,-7.52409 -1.03591,-4.8887 -5.71529,3.00323 -5.800992,-4.24684 2.570679,-7.8224 -12.509486,-0.83659 -5.574273,-8.77391 2.425196,-9.75951 -12.516579,1.54062 -14.52485,-7.80531 -3.785481,-4.016232 -20.498364,0.18975 -8.701124,2.02559 1.503487,-5.41936 13.448337,7.00074 8.815376,7.50487 -1.063899,8.26036 7.401757,-2.17686 9.039335,4.40676 9.526627,1.25554 -4.562149,14.65862 5.20174,8.47638 4.605068,-6.25761 -2.151579,10.13374 3.138455,3.40735 7.340538,-13.45676 -0.486506,5.28888 7.512124,2.5292 z m -33.063797,-9.57618 c 11.908397,0.19407 -9.814461,-3.79305 -2.085927,0.344 l 2.085927,-0.34405 z m -1.063219,-4.06288 c 10.572542,0.1648 -5.306293,-5.7766 -6.341133,-0.88427 1.638798,1.2787 4.438201,1.82065 6.341133,0.88427 z m -1.139365,-5.07854 c 5.320432,0.82904 4.57404,-5.79982 -1.034562,-2.08615 -2.369981,4.00616 -7.52255,-4.07146 -3.677379,2.6706 1.406888,0.10478 3.99792,1.21419 4.711941,-0.58445 z M 49.831435,91.616549 C 54.077713,83.665304 51.806141,73.709702 55.397602,65.38219 58.598419,53.060101 64.496573,40.882428 74.05536,32.590925 79.139543,26.905873 86.807844,23.245768 93.459271,19.119231 87.352008,19.104289 79.848371,26.001524 74.004906,30.020431 68.565639,35.894803 62.638921,41.193729 58.712091,48.939167 51.21194,61.09859 48.783668,75.759292 48.42336,89.861662 c -0.682424,0.514206 0.738566,3.744112 1.408075,1.754887 z m 8.108425,-0.723681 c -0.986502,-1.385169 -0.986502,1.385171 0,0 z m -0.05961,-2.230724 c 0.427074,-7.066142 0.798286,-14.792308 2.703947,-22.090927 2.752961,-13.681084 10.415007,-25.846309 20.538349,-35.326298 4.227768,-3.018133 9.566286,-9.346853 1.528712,-3.755398 -14.812457,10.719292 -24.055926,27.70205 -26.702042,45.619107 -0.740287,2.822288 -3.8253,21.198057 1.931034,15.553516 z m 73.30335,1.209599 c -1.03435,-4.217751 -2.43041,2.03167 0,0 z m -27.26691,-4.019076 c 2.82276,-8.322685 -14.674869,-0.04591 -3.17687,1.098955 l 2.12773,-0.302414 z m -3.11801,-5.771032 c -0.35004,-1.331787 -1.060258,1.441361 0,0 z M 235.73989,182.77837 c 2.25811,-2.64563 23.05346,-1.15401 8.92217,-0.2516 -2.91159,-0.17408 -6.17535,0.80544 -8.92217,0.2516 z m -76.91991,-4.98033 c 1.08616,-2.53063 0.49211,1.98273 0,0 z m 73.06492,-2.34588 c 1.18538,-1.28627 -0.0169,1.29835 0,0 z M 81.879021,173.9077 c 1.060262,-1.44136 0.350045,1.33179 0,0 z m 8.494542,-4.6106 c 0.827739,-2.07105 0.556018,1.33605 0,0 z m 137.634097,-0.43492 c 0.86198,-1.47409 2.2049,-1.42562 0,0 z m 1.94666,-0.74621 c 1.18538,-1.28627 -0.0169,1.29835 0,0 z m -5.59868,-0.92025 c 1.58238,-1.18804 1.52865,0.56012 0,0 z m -50.19502,-25.87261 c 3.4337,-3.70952 -1.62942,-17.70128 3.31673,-7.15377 0.0215,2.11478 -0.86207,7.0048 -3.31673,7.15377 z m 4.54988,-3.18661 c 2.60203,-4.40507 -5.87035,-17.55816 1.11031,-7.50105 0.71961,1.61085 0.82594,8.06012 -1.11031,7.50105 z m -55.51712,-4.19176 c 0.1539,-2.11756 1.23211,2.17452 0,0 z m 16.60297,-2.86755 c -1.47472,-1.80581 3.5273,1.37171 0,0 z m 52.27416,-1.48641 c -0.0696,-4.21024 -13.36346,-17.27333 -4.54398,-9.7997 1.72063,2.4159 6.13467,7.24294 4.54398,9.7997 z m -46.09631,-3.96119 c -5.69412,0.54879 -9.75518,-6.56025 -2.00426,-1.63795 3.3412,0.50089 10.25829,0.93162 4.763,1.72651 l -1.11487,0.0311 z m 0.888,-3.40812 c -5.25622,-1.08081 -8.64228,-8.75708 -2.00494,-2.51799 4.35053,2.11471 15.34043,3.34101 4.15518,2.97584 z m 36.12533,-0.79224 c -2.82972,-3.22827 4.34908,2.77215 0,0 z m -28.13268,-1.50228 c -5.23453,0.007 -12.71024,-7.9752 -3.60806,-2.6535 2.33694,1.71624 14.3404,1.89083 3.60806,2.6535 z m -40.49733,-0.33342 c -1.27987,-3.053 0.89045,-1.11727 0,0 z m -18.360448,-3.94908 c 3.819389,-9.88559 -3.760081,-1.36767 -8.129778,-2.34591 1.843899,-4.24333 3.544718,-8.37924 -2.675621,-4.86422 -2.748201,-2.27461 1.159461,-7.51223 -3.338679,-8.955587 1.21224,-4.949321 5.159375,-8.28527 2.633724,-0.932707 1.848096,1.149164 6.867517,-9.718312 3.187974,-0.03498 -2.840609,6.762054 1.770649,9.778394 3.48928,1.648594 2.530477,-7.668849 -0.711329,10.80119 -0.295896,10.97764 7.664335,0.40619 2.994689,-21.1877 5.766287,-7.8083 1.267845,3.37466 2.873774,14.40918 3.688437,4.67127 -0.507867,-7.60921 -0.0828,-3.24261 2.46299,-0.53849 1.14425,-4.99021 -1.88744,-13.603035 1.86947,-3.85569 -0.58555,3.87837 2.50416,11.17074 -2.76016,8.43146 -1.7298,1.09688 -3.595945,4.91204 -5.898028,3.60692 z m 30.482188,-0.0465 c 1.6697,-0.70336 0.26872,1.22011 0,0 z m -20.56924,-1.29774 c 1.91358,-3.27085 0.35119,-14.356194 3.54058,-13.2742 4.04028,7.34625 5.47625,1.52063 2.05149,-2.890841 0.81365,-1.100726 7.54341,-2.231847 3.94497,3.275551 0.45749,6.91229 -2.79832,9.30097 -5.70618,3.1512 -2.51809,1.76425 1.20047,13.91534 -3.83086,9.73829 z M 84.58183,111.3342 c 0.639326,-0.86266 0.965416,1.32215 0,0 z m 154.25315,-1.52169 c 1.18539,-1.28626 -0.0169,1.29835 0,0 z m 1.73751,-0.38611 c 5.38513,-0.61967 9.60481,-7.44524 11.12906,-9.954167 1.26755,5.792737 -9.32453,11.804137 -11.12906,9.954167 z m -8.03149,-3.09941 c -2.23495,-1.82835 16.36604,0.51023 14.17919,-8.801277 -2.81718,-11.746449 -16.73073,-15.123453 -22.71917,-24.780283 -4.57323,-6.856662 6.52808,6.574115 9.33181,8.032176 6.34434,4.995612 15.72408,10.496719 14.57586,19.891694 -3.70996,4.79348 -9.34854,6.72659 -15.36769,5.65769 z m -108.96151,-3.07844 c -0.6817,-2.48253 1.71251,2.56867 0,0 z m 14.6724,0.0171 c -4.87331,-3.315392 -3.93974,-9.172834 -0.23059,-2.19376 0.16805,-0.20457 0.95877,3.7886 0.23059,2.19376 z m 69.04227,-2.2115 c 2.1586,-0.33333 -0.66387,0.66194 0,0 z m 10.57474,-0.19958 c -9.22966,-4.309226 -19.34386,-6.126811 -28.97078,-9.024754 -4.24534,0.0916 -17.1337,1.383147 -6.89191,-0.645245 4.64856,-1.22257 1.10022,-6.820569 5.71494,-1.004414 10.4642,2.39924 21.2443,4.52132 30.47612,10.361073 0.25209,0.15945 13.85323,5.4147 14.10296,5.5798 l -0.34504,0.27296 z m -61.14702,-0.20996 c -7.13419,-2.604432 -1.63478,-4.432325 2.62124,-3.055538 -4.2576,-0.356859 -1.08984,2.743748 -2.62124,3.055538 z m -30.81451,-1.242196 c -1.27825,-2.677611 2.97687,1.815366 0,0 z m 65.8564,-3.16943 c -4.02517,-0.316105 -14.32373,-1.642137 -4.4989,-1.777671 2.39121,-0.654806 12.2235,3.147165 4.4989,1.777671 z M 79.176213,94.731216 c 0.639326,-0.862656 0.965416,1.322155 0,0 z m 76.638927,-0.162419 c -2.37835,-1.735532 30.66978,-2.975743 19.73976,-1.859873 l -14.16224,1.833628 z M 84.967946,92.658154 c -7.426013,0.824244 -2.900752,-6.208521 -2.804995,-7.704348 -8.729148,3.659788 5.559106,-18.119343 2.302396,-6.802768 -5.874481,4.466495 0.33153,1.877274 0.03926,4.170047 2.856876,1.565046 -6.227155,11.390403 1.855825,4.031694 2.71152,-2.969263 -1.765381,4.48323 0.519059,5.565477 0.731218,0.212105 -2.117623,2.163587 -1.911545,0.739898 z m -7.408591,-2.415179 c 2.15859,-0.333334 -0.663877,0.661941 0,0 z M 75.315058,83.15718 c 0.617499,-1.943598 2.796213,0.90734 0,0 z m 9.652888,-3.224042 c 1.820477,-2.662915 1.272281,1.221403 0,0 z m 38.997664,0.148477 c 0.69195,-1.215198 3.85903,1.656184 0,0 z m -19.22855,-0.463338 c -0.16505,-4.076936 7.57668,0.259226 0.80499,0.419445 l -0.80499,-0.419434 z M 93.919783,79.361548 c -6.314576,-6.388578 8.006057,2.788372 0,0 z M 79.046663,74.80386 c 2.585747,-4.037282 2.251745,0.279865 0,0 z m 42.915977,-0.777737 c 2.15859,-0.333334 -0.66388,0.661941 0,0 z m -1.08596,-0.906704 c 1.40846,-1.224719 1.04924,0.784607 0,0 z M 97.802637,67.345063 c -2.047694,-5.645666 3.352553,2.858794 0,0 z m 3.774183,-0.294827 c 1.57046,-5.710845 1.9913,3.49472 0,0 z m 118.38464,-0.579173 c -2.83137,-10.830251 8.51608,-17.202964 13.10001,-25.471469 0.55535,-0.33826 4.44547,-2.088248 4.75627,-2.243079 0.94391,-0.470239 0.84535,-0.147574 0.22249,0.645936 -0.1017,0.129583 -3.6837,1.780915 -3.81113,1.93421 -1.97457,2.375499 -6.76484,7.429492 -5.97309,9.942691 -6.32015,2.116543 -7.42695,9.931775 -7.53159,14.791035 -0.007,0.332175 1.8521,3.627606 1.85297,3.929389 7.7e-4,0.300707 -0.14567,0.387297 -0.13819,0.654064 z M 90.365285,65.376004 c -3.032053,-2.634666 -2.67348,-5.102624 -0.946088,-4.835587 1.868467,0.288845 5.905672,-0.237527 7.00022,0.370046 1.391271,0.772274 1.071332,1.888109 -2.928196,3.803396 -5.18543,-2.020237 0.116032,2.368189 -3.125936,0.662157 z m 17.057155,-0.323518 c -4.76752,-2.299298 -4.89872,-3.816605 -2.70332,-4.501991 1.38727,0.43528 3.76514,0.147859 5.56019,-0.423395 3.85437,-1.494614 -0.0429,7.731461 -2.85687,4.925386 z m 2.42957,-0.834565 c -1.74532,-0.734539 -0.12353,1.889556 0,0 z m 114.50954,0.129506 c 0.0176,-0.06904 0.0625,-0.176242 0.12996,-0.314541 0.32886,-0.674269 0.54779,-2.704646 1.3867,-4.037421 0.95675,-1.51997 3.81984,-2.999846 3.87917,-3.094344 0.17117,-0.272567 0.49545,-0.206978 0.51716,0.136618 0.006,0.100488 -3.01378,1.693145 -3.99895,3.263503 -0.71071,1.132863 -0.72632,2.90482 -0.89324,3.561842 -0.0258,0.101722 -0.0178,0.950814 0.25017,1.732547 0.308,0.898521 0.88204,1.738334 0.85177,1.757289 -0.62248,0.38976 -1.99416,-2.160679 -2.12274,-3.005493 z M 116.55702,57.809291 c 2.15859,-0.333334 -0.66387,0.661941 0,0 z m -13.29263,-0.677057 c -0.0698,-4.327359 2.16794,1.22521 0,0 z m 127.7276,-0.09913 c 5.80279,-4.320479 18.21209,0.190169 22.15201,-7.031658 -3.71223,-0.942751 -10.1671,1.685792 -3.19901,-1.584286 5.63057,0.09483 8.6998,-4.408196 4.5188,-5.245565 8.34325,-2.382251 3.86349,4.176882 0.29845,6.409931 1.43021,6.430913 -18.23015,6.962176 -23.77025,7.451578 z M 96.165296,55.370242 c 1.407452,-1.485846 0.888513,1.339458 0,0 z M 233.81547,54.598011 c 2.38682,-2.603222 3.88452,1.825515 0,0 z M 112.18909,51.122972 c -1.86157,-1.505338 3.16108,1.046009 0,0 z m 134.56126,-5.58335 c 0.41084,-3.569565 11.22358,-11.838646 7.17817,-6.576099 -4.47559,2.027411 -0.83391,6.262704 -7.17817,6.576099 z m -3.32549,-4.998957 c 2.21236,-7.432024 -9.61538,2.678958 -2.06701,-4.589026 1.34996,-7.297807 3.152,5.416067 7.90224,-0.05379 2.38917,-1.497811 -7.03466,7.116935 -5.83523,4.642819 z"
       sodipodi:nodetypes="cccccccccccccccccccccccccccccccccccsscssscccccccccccccccccccccccccccccccccccccccccccccccccccccccccccccccccccccccccccccccccccccccccccccccccccccccccccccccccccccccccccccccccccccccccccccccccccccccccccccccccccccccccccccccccccccccccccccccccccscccccccccccccsscccccccccccccccccccccccccccccccccccccccccccccccccccccccccccccccccccccccccccccccccccccccccccccccccccccccccccccccccccccccccccccccsccccccccccccssccccccccccccccccccccccccccccccccsccccccccccccccccccccccccccccccccsccsccccccccccccccssscsscccssccccccccccsssssssscccccccccccccccccccccccc"
       style="fill:#4d4d4d;stroke:#4d4d4d;stroke-width:0.386115" />
  </g>
  <g
     inkscape:groupmode="layer"
     id="layer4"
     inkscape:label="Layer 3"
     style="display:inline">
    <path
       id="path9567"
       style="color:#000000;fill:#4d4d4d;stroke-width:1.01927;-inkscape-stroke:none;paint-order:stroke fill markers"
       d="m 164.1249,75.163986 c -5.97576,9.67e-4 -11.38897,2.086475 -15.31092,5.460651 -3.92195,3.374175 -6.35264,8.037027 -6.36844,13.190763 l 1.44928,-0.0637 c 0.0822,-0.593174 0.18956,-0.978785 0.36524,-1.527237 l 0.0289,-0.129073 c 0.48224,-3.944441 2.44341,-7.517943 5.59403,-10.228516 3.61007,-3.105851 8.64735,-5.063582 14.24188,-5.064488 9.665,0.0011 17.61802,5.856465 19.52935,13.572989 l 0.007,0.09741 c 0.30549,0.598765 0.5542,1.430241 1.06803,1.495197 l 0.95955,-0.04181 C 184.5375,82.401059 175.22889,75.165233 164.12474,75.163989 Z"
       sodipodi:nodetypes="csccccscccccc" />
  </g>
  <g
     inkscape:groupmode="layer"
     id="layer3"
     inkscape:label="Layer 2"
     style="display:inline">
    <path
       style="font-variation-settings:normal;opacity:1;fill:#fff6d5;fill-opacity:1;stroke:none;stroke-width:0.048699;stroke-linecap:butt;stroke-linejoin:miter;stroke-miterlimit:4;stroke-dasharray:none;stroke-dashoffset:0;stroke-opacity:1;paint-order:stroke fill markers;stop-color:#000000;stop-opacity:1"
       d="m 92.025106,178.12026 c -1.407405,-0.37836 -1.850738,-0.64755 -2.22827,-1.35298 -0.400286,-0.74793 0.01282,-1.62813 2.025241,-4.31514 1.066296,-1.42374 2.146874,-2.99514 2.401285,-3.49202 0.500969,-0.97841 0.615404,-2.29225 0.211382,-2.42692 -0.143715,-0.0479 0.109729,-0.91372 0.592383,-2.02368 0.804942,-1.85112 1.363266,-2.55868 1.363266,-1.72764 0,0.66743 0.435486,0.42376 1.325247,-0.74152 2.42481,-3.17567 4.07578,-9.14068 4.7817,-17.27636 0.39962,-4.60562 0.16946,-5.34234 -1.35665,-4.3424 -0.32421,0.21243 -0.70386,0.31554 -0.84367,0.22912 -0.414078,-0.25591 -0.28991,-1.82852 0.19942,-2.52572 0.2495,-0.35548 0.81033,-1.63249 1.24629,-2.83779 1.76015,-4.86621 2.76997,-5.73725 4.90717,-4.2327 0.45107,0.31756 0.69037,0.75973 0.80634,1.4899 0.34046,2.14366 1.69652,3.82777 2.80012,3.4775 1.38382,-0.43921 3.64771,-3.42095 4.90234,-6.45684 0.3044,-0.73657 0.56628,-1.36219 0.58196,-1.39025 0.0157,-0.028 0.71839,0.16369 1.56159,0.42612 4.07871,1.26944 5.07685,0.0143 3.78352,-4.75799 -1.28983,-4.75923 -1.1116,-5.38965 2.0528,-7.26056 2.16885,-1.28231 2.43445,-1.77716 1.35725,-2.52876 -0.34484,-0.24062 -1.35415,-1.06753 -2.24292,-1.83758 -0.88876,-0.77005 -1.77138,-1.4001 -1.96137,-1.4001 -0.36898,0 -0.34002,0.55555 0.18363,3.52267 0.30838,1.74734 0.0356,2.22761 -0.71992,1.2672 -0.28141,-0.35775 -0.66596,-0.65045 -0.85457,-0.65045 -0.57562,0 -0.67608,1.13754 -0.38432,4.35177 0.33509,3.69146 0.3564,6.11852 0.0537,6.11852 -0.33246,0 -1.3603,-1.29916 -1.66002,-2.09823 -0.14481,-0.38609 -0.42587,-1.14026 -0.62458,-1.67595 -0.67163,-1.81053 -1.15471,-1.23527 -1.64115,1.95431 -0.1435,0.94094 -0.35366,1.86089 -0.46702,2.04431 -0.30875,0.49956 -0.94203,0.13637 -1.33356,-0.7648 -0.1909,-0.43938 -0.67806,-1.53848 -1.08258,-2.44246 -1.45712,-3.25619 -2.02954,-1.32088 -0.84625,2.86107 0.73284,2.58997 0.96417,5.06058 0.56996,6.08738 l -0.28044,0.73049 -0.58936,-0.73049 c -0.74542,-0.92392 -1.8541,-3.56874 -2.55176,-6.08738 -1.02899,-3.71476 -1.59995,-5.327 -1.92485,-5.4353 -0.25969,-0.0865 -0.29324,0.17432 -0.16394,1.27448 0.32082,2.72975 0.46473,5.69261 0.30701,6.32102 -0.35399,1.41039 -1.43561,0.41078 -2.46205,-2.27539 -0.60878,-1.59316 -1.19242,-2.42848 -1.48933,-2.13157 -0.0747,0.0747 -0.28349,1.40588 -0.46395,2.95814 -0.22799,1.96111 -0.51669,3.23423 -0.94613,4.17226 -0.786,1.71686 -1.546433,2.78646 -1.981011,2.78646 -0.780013,0 -0.953281,-1.04972 -1.081909,-6.5546 -0.09133,-3.9087 -0.209894,-5.48616 -0.417507,-5.555 -0.168684,-0.0559 -0.414994,0.34317 -0.588912,0.95421 -0.431818,1.51712 -0.578338,1.57548 -1.453358,0.57889 -0.651089,-0.74155 -0.842542,-0.84105 -1.10783,-0.57577 -0.26529,0.2653 -0.238257,0.84639 0.156415,3.36242 0.624002,3.97801 0.627309,5.39272 0.0139,5.94785 -0.284935,0.25786 -0.655995,0.36574 -0.943791,0.2744 -0.598741,-0.19003 -1.58346,-2.38936 -2.078177,-4.64153 -0.46998,-2.13955 -0.965762,-6.6223 -0.767831,-6.94256 0.08176,-0.1323 0.03567,-0.24054 -0.102433,-0.24054 -0.138103,0 -0.488525,0.55191 -0.778715,1.22647 -0.29019,0.67457 -0.649348,1.18676 -0.798128,1.13821 -0.148781,-0.0485 -0.501928,-0.89759 -0.784773,-1.88676 -0.694446,-2.42862 -1.015405,-2.58785 -2.29228,-1.13724 -1.647104,1.87121 -1.823519,1.67634 -2.035403,-2.24829 -0.134879,-2.49831 -0.56305,-3.4728 -1.592848,-3.62527 -0.378153,-0.056 -0.497674,-0.19589 -0.395284,-0.46271 0.29026,-0.75641 0.651472,-5.32283 0.50117,-6.33577 -0.222791,-1.50148 -0.758169,-1.34089 -1.217693,0.36524 -0.988435,3.66989 -1.891383,5.88532 -2.478451,6.081 -1.203472,0.40116 0.09536,-6.77312 1.744594,-9.63653 0.796547,-1.38298 0.774341,-1.74226 -0.05925,-0.95864 -0.686445,0.6453 -2.236849,1.65056 -2.548132,1.65219 -0.09573,4.9e-4 -0.284711,-0.20585 -0.419958,-0.45857 -0.348411,-0.65101 0.241293,-2.74438 1.450692,-5.14975 0.541983,-1.077953 0.920613,-2.064778 0.8414,-2.192949 -0.07921,-0.128168 -1.180809,0.703356 -2.447992,1.847831 -1.267184,1.144476 -2.411651,2.014316 -2.543263,1.932977 -0.338408,-0.20915 -0.07115,-1.175819 0.905255,-3.274294 0.91262,-1.961393 1.017992,-2.836953 0.691611,-5.746737 -0.165921,-1.47923 -0.12228,-1.879554 0.31189,-2.861068 0.277642,-0.627655 0.469559,-1.141191 0.426484,-1.141191 -0.04308,0 -0.471686,0.164359 -0.952468,0.365242 -1.174389,0.490691 -2.23646,0.459912 -4.111236,-0.119149 -1.733631,-0.535463 -2.657145,-1.282767 -2.177716,-1.762194 0.157916,-0.157916 0.984385,-0.331518 1.836599,-0.385784 1.457504,-0.09281 1.571263,-0.144077 1.916425,-0.863728 0.20182,-0.420787 1.253134,-2.001412 2.336253,-3.512498 3.01849,-4.211174 2.973229,-5.332094 -0.21141,-5.235794 -0.9329,0.02821 -1.696182,-0.0048 -1.696182,-0.07338 0,-0.263896 0.824216,-1.695499 2.415859,-4.196172 2.084848,-3.275559 2.644634,-4.369476 3.324362,-6.496352 0.519836,-1.626577 0.589005,-1.717298 1.513619,-1.985255 2.40372,-0.696608 2.640303,-1.256526 1.388114,-3.285233 -0.909047,-1.472772 -0.983336,-2.08553 -0.162816,-1.342971 0.245729,0.222383 0.6215,0.404333 0.835043,0.404333 0.54007,0 1.754909,-1.068666 2.398347,-2.109771 0.490601,-0.79381 0.502692,-0.891917 0.135252,-1.097546 -0.546108,-0.305618 -0.510068,-0.688607 0.0648,-0.688607 0.257568,0 0.793857,-0.273931 1.191752,-0.608737 0.438861,-0.369279 1.02721,-0.608738 1.495661,-0.608738 1.817834,0 2.531008,-1.146028 2.40722,-3.86826 -0.07792,-1.713378 -0.04663,-1.859269 0.412829,-1.925037 0.273422,-0.03914 0.957303,0.262187 1.519736,0.669611 1.14336,0.828247 1.269734,0.871615 1.271678,0.436405 0.0033,-0.739186 0.547545,-2.169626 0.873008,-2.294518 0.218106,-0.0837 0.869825,0.347945 1.674728,1.109189 1.318631,1.247104 2.037743,1.515425 2.516238,0.938876 0.140282,-0.16903 0.494848,-0.948224 0.787923,-1.731543 0.29308,-0.783319 0.83468,-1.76201 1.20357,-2.174867 l 0.6707,-0.750649 0.61342,0.661883 c 0.33737,0.364035 0.85552,1.309269 1.15142,2.100517 0.29591,0.791249 0.74598,1.626838 1.00016,1.856866 0.44261,0.400565 0.51815,0.36526 1.78809,-0.8358 1.85483,-1.754221 2.0652,-1.705501 2.45119,0.567698 0.33635,1.980876 0.5071,2.056692 2.96378,1.315967 1.26797,-0.382312 1.78402,-0.04871 1.78402,1.153282 0,0.452331 -0.0379,0.822419 -0.0843,0.822419 -0.0464,0 -0.43915,-0.177008 -0.87282,-0.39335 -0.50251,-0.250682 -0.87308,-0.30876 -1.02171,-0.160127 -0.34043,0.340428 0.39118,0.862561 1.25145,0.893125 0.51752,0.01838 0.691,0.12845 0.61603,0.390838 -0.0574,0.200883 -0.1759,0.872758 -0.26332,1.493055 -0.18617,1.32103 0.11437,1.655473 0.97874,1.089117 0.76706,-0.502599 2.76457,-0.940622 3.47565,-0.762154 0.93243,0.234025 1.05454,1.049693 0.53134,3.549218 -0.25939,1.239168 -0.47161,2.605129 -0.47161,3.035469 0,0.938564 0.73754,1.953447 1.57176,2.162824 0.52185,0.130976 0.57504,0.232043 0.38506,0.731717 -0.54652,1.437461 0.53598,2.763101 3.31732,4.062418 2.21639,1.035394 2.5053,1.312782 1.94783,1.870237 -0.34966,0.349672 -0.55909,0.344011 -2.34262,-0.06334 -2.76671,-0.631899 -2.92298,-0.156309 -0.37468,1.140268 1.69923,0.864572 4.98104,3.13092 5.24325,3.620891 0.23102,0.431644 0.16365,0.473428 -0.7909,0.490545 -1.51568,0.02718 -2.9717,0.522478 -3.07236,1.045123 -0.0994,0.515966 0.66165,1.393963 2.02894,2.340853 0.87597,0.606634 0.97813,0.785201 1.01526,1.774551 0.0495,1.319281 0.45069,2.145061 1.94706,4.007777 0.62077,0.772764 1.2477,1.557091 1.39318,1.742953 0.22241,0.284169 -0.0648,0.32065 -1.80502,0.22931 -1.69464,-0.08894 -2.3042,-0.236347 -3.365,-0.813708 -2.21023,-1.202961 -3.04611,-2.499056 -5.10919,-7.922161 -1.50394,-3.953346 -2.20145,-5.477602 -3.05653,-6.679418 -0.30266,-0.425392 -0.71745,-1.734356 -1.00306,-3.165438 -0.26785,-1.34206 -0.59522,-2.440109 -0.72748,-2.440109 -0.13227,0 -0.4414,0.975512 -0.68696,2.167806 -0.89275,4.334735 -2.0959,6.232777 -3.95093,6.232777 -0.93632,0 -0.98206,0.09311 -0.47851,0.973981 0.50775,0.88823 0.4504,2.774423 -0.11827,3.889103 -0.64138,1.257204 -0.90371,1.378477 -1.58907,0.734614 -0.83229,-0.781902 -2.53496,-0.934297 -3.12719,-0.279895 -0.2477,0.273706 -0.46657,0.777901 -0.48637,1.120432 -0.0198,0.342529 -0.11036,0.62286 -0.20123,0.622953 -0.27777,2.43e-4 -0.92104,-0.736206 -1.32457,-1.51654 -0.36005,-0.696269 -0.35235,-0.777801 0.12997,-1.377028 1.82785,-2.270858 2.16157,-3.144786 1.50882,-3.951059 -0.46184,-0.570449 -0.54867,-0.581803 -4.44942,-0.581803 -4.884276,0 -4.929326,0.04982 -2.517824,2.78474 1.636908,1.856431 1.984955,2.541892 1.717898,3.383316 -0.155786,0.490838 -1.183178,1.087793 -2.389864,1.388604 -0.531616,0.132525 -0.643741,0.09302 -0.535619,-0.188743 0.17407,-0.453616 -1.215847,-1.690352 -2.804411,-2.49534 -1.122673,-0.568902 -1.218954,-0.580427 -1.607018,-0.192362 -0.388063,0.388063 -0.462526,0.355053 -1.242858,-0.550992 -1.185457,-1.376435 -3.247006,-5.725682 -4.727266,-9.973107 -0.700094,-2.008835 -1.355932,-3.747743 -1.457419,-3.864242 -0.324739,-0.372773 -0.748016,1.598434 -0.882258,4.108696 -0.115495,2.159707 -0.06251,2.630729 0.467236,4.154033 0.90958,2.615496 2.137216,4.283204 6.889354,9.35899 0.81499,0.870495 1.798822,2.238757 2.186295,3.040582 2.828871,5.853994 8.858144,6.016076 14.503684,0.389897 2.46758,-2.459126 3.4714,-4.113461 3.98207,-6.562643 0.42092,-2.018733 0.9396,-3.045083 1.90105,-3.761705 1.88587,-1.405649 3.90493,0.157972 4.71746,3.653354 l 0.30902,1.329385 -1.01717,-0.174609 c -1.59358,-0.273555 -1.72297,-0.256795 -1.82431,0.236279 -0.0675,0.328364 0.46182,0.98587 1.81315,2.25233 l 1.90845,1.788586 h -0.99338 c -0.65924,0 -1.13125,0.15235 -1.40327,0.452938 -0.52141,0.576148 -0.311,1.17305 1.1823,3.353955 1.45115,2.119339 1.43481,2.325054 -0.17827,2.244888 -1.93828,-0.09633 -3.10456,0.793805 -3.10456,2.369499 0,0.876462 0.51404,1.5563 3.22489,4.265096 1.46043,1.459322 1.86896,2.024092 1.93125,2.669852 0.0691,0.716004 0.18618,0.842008 0.93124,1.001914 2.14714,0.460822 1.98091,-0.540849 -0.60874,-3.668102 -1.13834,-1.374654 -2.06971,-2.642309 -2.06971,-2.81701 0,-0.42356 0.96556,-0.797561 3.10696,-1.20346 2.2424,-0.425043 2.60462,-0.690928 2.1413,-1.571829 -0.1866,-0.354814 -0.84116,-1.133616 -1.45456,-1.730672 -1.11704,-1.087296 -1.37656,-1.842919 -0.82306,-2.396428 0.41086,-0.410847 1.54033,-0.363151 2.45922,0.103848 1.29258,0.656916 3.89733,2.882623 4.67519,3.994853 0.40177,0.574471 1.27646,1.567461 1.94374,2.20665 0.66729,0.639187 1.13473,1.24069 1.03874,1.336674 -0.096,0.09598 -1.49216,-0.08203 -3.10262,-0.39559 -2.13515,-0.415711 -3.00088,-0.497335 -3.19681,-0.301408 -0.39052,0.390523 -0.0932,0.724583 1.39018,1.561725 1.45497,0.821132 2.29201,1.721392 2.29201,2.465094 0,0.26652 -0.28793,1.126185 -0.63986,1.91037 -0.60468,1.34744 -0.6181,1.45898 -0.24414,2.029715 0.22757,0.3473 0.79871,0.71245 1.3441,0.85931 1.00539,0.27072 2.70534,1.894 2.70534,2.58332 0,0.33739 -0.36315,0.36252 -3.03671,0.21022 -2.61157,-0.14879 -3.12291,-0.11653 -3.65243,0.23042 -0.73411,0.48101 -0.7573,0.742 -0.16859,1.89674 l 0.44713,0.87701 -1.41595,-0.12839 c -1.19708,-0.10855 -1.44124,-0.0625 -1.57954,0.29792 -0.12412,0.32343 0.48225,1.05699 2.51274,3.03978 1.47199,1.4374 2.94033,3.08637 3.263,3.66436 0.43234,0.77448 0.82869,1.13384 1.50676,1.36617 1.05398,0.36112 1.6366,0.22624 1.6366,-0.37888 0,-0.51504 -1.13458,-2.25479 -2.43079,-3.72736 -1.10355,-1.25371 -1.46513,-2.05212 -1.46513,-3.23524 0,-1.14163 0.48229,-1.33194 3.37553,-1.33194 2.71939,0 3.19884,-0.22339 3.19884,-1.49045 0,-0.971 -0.57554,-2.03292 -1.89758,-3.5012 -1.11371,-1.23691 -1.98331,-2.809251 -1.993,-3.603637 -0.009,-0.732492 0.65157,-1.763304 1.32708,-2.071085 1.06887,-0.487012 2.94016,-0.355561 4.21518,0.296095 1.24878,0.638242 2.15792,1.527217 3.54236,3.463773 0.77809,1.088384 1.81355,2.036604 2.224,2.036604 0.27828,0 0.10112,-0.68743 -0.61873,-2.400715 -0.41197,-0.980519 -0.68942,-1.842382 -0.61654,-1.91525 0.32844,-0.328443 1.72043,0.604204 2.85299,1.911529 0.69523,0.802516 1.44109,1.430446 1.69907,1.430446 0.27167,0 0.71143,-0.39854 1.07469,-0.973965 0.80619,-1.277096 1.39297,-1.261 3.20218,0.08783 2.10348,1.568225 2.49874,1.742215 2.94475,1.296185 0.77599,-0.77598 -0.81935,-3.316172 -2.81848,-4.487744 -0.95652,-0.560551 -1.35522,-0.650182 -2.59456,-0.583273 -4.30545,0.23244 -5.06953,0.173713 -7.00498,-0.538388 -3.30024,-1.214249 -5.99016,-3.322961 -4.23886,-3.322961 0.31301,0 2.09357,0.384089 3.95681,0.853531 4.57727,1.153244 8.88532,1.570646 16.1712,1.56681 5.65164,-0.0029 6.38853,-0.05928 14.00096,-1.069878 7.3819,-0.979991 13.23569,-1.459486 17.8969,-1.465965 1.5532,-0.0021 3.06389,0.336138 10.10505,2.262868 10.11606,2.768144 14.12245,4.134778 25.08,8.55515 4.68729,1.8909 9.01541,3.50582 9.61806,3.58873 2.02774,0.27895 5.45383,0.15472 7.06136,-0.25605 2.47877,-0.63339 4.87473,-1.93268 6.68451,-3.62489 1.91208,-1.78786 2.18872,-2.55791 1.83063,-5.095793 -0.69888,-4.953166 -3.60739,-8.666434 -11.31533,-14.446188 -2.87072,-2.15259 -5.16055,-4.170515 -8.70164,-7.668389 -2.64315,-2.610876 -4.91679,-4.784071 -5.05253,-4.829319 -0.13575,-0.04525 -0.2468,-0.257769 -0.2468,-0.472269 0,-0.214499 -0.3981,-1.159258 -0.88465,-2.099461 l -0.88465,-1.709464 0.13948,-2.445781 c 0.33496,-5.873809 2.65306,-10.387069 6.1791,-12.030535 0.94851,-0.442095 1.20772,-0.67816 1.11865,-1.018768 -0.29242,-1.118205 1.51597,-4.233087 4.41153,-7.598729 1.30866,-1.521099 1.96593,-2.058783 3.38169,-2.76636 0.9665,-0.483057 1.92165,-1.022288 2.12254,-1.198292 0.20088,-0.176003 1.21574,-0.605278 2.25525,-0.953944 1.51563,-0.508368 1.99158,-0.579576 2.40282,-0.35949 0.46414,0.248405 0.49738,0.410811 0.35023,1.711469 -0.13393,1.183724 -0.0986,1.437022 0.20038,1.437022 0.19962,0 1.92167,-1.171482 2.00011,-1.298414 0.1155,-0.186876 1.98403,-0.198522 2.76258,2.296382 0.0829,0.265685 -0.91138,1.347346 -1.18856,1.890678 -0.73344,1.437639 0.14095,1.64878 1.0545,1.466072 0.69227,-0.138456 1.31203,-0.243485 1.74525,0.767156 0.73748,1.720476 0.59035,1.865441 -1.96272,2.861574 -0.70893,0.2766 -1.1891,0.770203 -1.15661,0.904126 0.0325,0.133922 0.14127,0.240105 0.24171,0.235961 0.10045,-0.0041 1.24343,-0.09599 2.53996,-0.204091 1.40955,-0.117528 2.52103,-0.104948 2.76448,0.03128 0.36161,0.202376 0.32454,0.321919 -0.33174,1.069375 -0.92501,1.05352 -2.69033,2.026056 -4.56481,2.514797 -1.10923,0.289215 -8.96634,1.100825 -10.65696,1.100825 -0.1586,0 -0.39652,-0.246539 -0.52872,-0.547864 -0.32942,-0.750863 -1.32,-0.82214 -2.16696,-0.155922 l -0.68251,0.536858 0.55183,0.295326 c 0.53625,0.286992 0.52496,0.303854 -0.39991,0.597474 -0.52346,0.166181 -1.40069,0.558735 -1.94942,0.872343 -0.69869,0.399317 -1.07453,0.493345 -1.25411,0.313757 -0.55216,-0.552153 -4.13754,2.119005 -4.90421,3.653705 -0.24369,0.48782 -0.63982,1.627084 -0.88029,2.531703 -0.41895,1.576066 -0.41918,1.684734 -0.006,2.601982 0.2374,0.526473 0.7638,1.296962 1.16978,1.712202 0.40597,0.415237 0.98148,1.280217 1.2789,1.922176 1.08135,2.334 4.86036,5.795949 10.46307,9.585221 5.12333,3.465058 9.9612,7.628095 12.35097,10.628118 2.73703,3.435972 3.70757,6.097749 3.55196,9.741541 -0.087,2.03846 -0.20544,2.5608 -0.91684,4.04518 -1.08231,2.25823 -3.83589,5.02794 -6.22027,6.25668 -5.45155,2.80937 -12.35018,3.0641 -18.97509,0.70069 -15.47291,-5.51992 -23.30535,-8.52045 -23.46112,-8.98776 -0.0461,-0.13839 0.32534,-0.28604 0.8255,-0.3281 1.01713,-0.0856 1.33432,-0.52595 0.64463,-0.895071 -0.95702,-0.51218 -4.38166,-1.027438 -6.36392,-0.957489 l -2.02974,0.07163 4.25499,3.71091 c 8.74983,7.63097 12.45444,12.40053 13.68429,17.61803 0.45481,1.92943 0.50855,5.17545 0.0833,5.03371 -0.16033,-0.0534 -0.70514,-1.54239 -1.21071,-3.30878 -1.03548,-3.61778 -2.28269,-6.48952 -3.14996,-7.25278 -0.93305,-0.82116 -4.84417,-1.42994 -4.84417,-0.75402 0,0.17359 0.77192,1.00673 1.71537,1.85142 1.71941,1.53943 2.60285,2.60524 2.3604,2.84769 -0.0713,0.0713 -0.68397,-0.16023 -1.3615,-0.5145 -0.67753,-0.35427 -1.42844,-0.60452 -1.6687,-0.55611 -0.44073,0.0888 -0.3529,0.19884 3.29992,4.13351 l 0.83043,0.89452 -0.93092,-0.20996 c -1.5546,-0.35062 -1.7367,0.12136 -0.58559,1.51784 0.40559,0.49207 0.89971,1.283 1.09802,1.75764 0.3383,0.80967 0.32884,0.89471 -0.15307,1.37662 -0.2825,0.28251 -0.42051,0.59084 -0.30667,0.68519 0.11383,0.0944 1.24791,0.64843 2.52017,1.23128 2.53962,1.16345 6.89824,3.42075 8.35382,4.32638 l 0.9272,0.57689 1.48577,-0.74244 c 1.50524,-0.75219 2.47879,-0.93324 2.74057,-0.50967 0.27408,0.44346 -0.5435,1.87057 -1.57984,2.75762 -2.0104,1.72084 -4.05945,1.83579 -6.37055,0.3574 -2.59802,-1.66195 -3.57001,-1.97258 -3.20628,-1.02472 0.21969,0.5725 3.82535,3.17853 5.5105,3.98278 2.03974,0.97347 3.11983,1.11348 5.04405,0.6538 1.84144,-0.4399 2.1847,-0.45909 2.67418,-0.14959 0.30187,0.19087 0.24735,0.34683 -0.333,0.95258 -1.50379,1.56962 -4.98146,2.40659 -6.81548,1.64028 -1.16132,-0.48522 -2.67439,-0.50992 -3.05618,-0.0499 -0.44779,0.53955 0.96738,1.45385 3.63872,2.3509 1.81331,0.60893 2.86304,0.802 4.88943,0.89932 l 2.58037,0.12392 1.58244,-0.88496 c 1.81718,-1.01622 3.26546,-1.17712 3.93509,-0.43718 0.22288,0.24626 0.62705,1.46413 0.89817,2.70638 0.54924,2.51652 0.98499,3.52774 1.68054,3.9 1.10713,0.59252 2.99149,0.0452 4.95915,-1.4404 1.89957,-1.43418 2.54988,-1.31921 1.71438,0.3031 -0.99654,1.93497 -2.74299,3.33597 -4.15856,3.33597 -0.55962,0 -1.85726,1.36788 -1.63649,1.72507 0.20598,0.33332 1.37402,0.26518 4.61366,-0.2691 3.96644,-0.65414 6.60978,-0.61405 6.38679,0.0969 -0.0472,0.15035 -1.15987,0.84128 -2.47269,1.53537 -1.31282,0.6941 -2.64838,1.5076 -2.9679,1.80779 -0.79367,0.74562 -0.76434,1.82555 0.0733,2.6999 l 0.6543,0.68293 h -0.61829 c -0.86783,0 -2.14928,0.93797 -2.67571,1.95853 -1.19759,2.32164 -0.68351,5.21488 1.26108,7.09734 1.13099,1.09486 1.17022,1.1776 0.94503,1.99319 -0.25718,0.93142 -1.37357,2.01308 -2.32388,2.25159 -0.98682,0.24768 -2.52976,-0.0731 -3.14883,-0.65474 -0.98949,-0.92958 -1.1973,-2.00513 -0.72473,-3.75095 0.34742,-1.28341 0.36742,-1.75753 0.12952,-3.06945 -0.32059,-1.76793 -0.67147,-2.56965 -0.98667,-2.25444 -0.11793,0.11792 -0.38463,1.85546 -0.59267,3.86119 -0.58646,5.65413 -1.2266,7.66445 -2.44061,7.66445 -0.481,0 -0.60312,-0.12326 -0.60312,-0.60874 0,-0.73973 -0.48032,-0.8086 -0.66677,-0.0956 -0.11427,0.43696 -0.26234,0.49233 -0.9975,0.37303 -0.47483,-0.0771 -1.06983,-0.34661 -1.32224,-0.59901 -0.43082,-0.43082 -0.43542,-0.51518 -0.0752,-1.37728 0.21103,-0.50509 0.86106,-1.58956 1.4445,-2.40993 1.27065,-1.7867 1.7448,-2.68665 1.97248,-3.74392 0.20651,-0.95897 9.8e-4,-0.98709 -1.20947,-0.16556 -0.66646,0.45225 -0.97217,0.5449 -1.10248,0.33404 -0.27853,-0.45067 -0.75939,-0.007 -0.67667,0.62419 0.0547,0.41768 -0.42677,1.1135 -1.86026,2.68822 -2.2092,2.42688 -3.06238,3.0304 -4.28578,3.03168 -0.88824,9.8e-4 -2.17686,-0.7591 -2.80324,-1.65338 -0.29189,-0.41674 -0.20391,-0.60275 0.8417,-1.77962 1.30494,-1.46876 1.82117,-2.31157 1.61759,-2.64097 -0.15952,-0.25812 0.77821,-0.62003 1.38062,-0.53284 0.22791,0.033 0.69279,-0.12244 1.03308,-0.34541 0.39801,-0.26079 0.84224,-0.34929 1.2453,-0.24814 0.86717,0.21764 3.08068,-1.0743 3.78041,-2.20651 0.87345,-1.41326 0.89953,-4.21107 0.0775,-8.30649 -0.24148,-1.20296 0.2502,-0.97151 1.10317,0.51934 1.32671,2.31884 2.08138,2.40182 2.00096,0.22004 -0.14332,-3.88842 -2.89149,-9.19316 -4.52046,-8.72574 -3.92309,1.12569 -6.02508,1.30269 -9.1052,0.76669 -4.34357,-0.75584 -8.26045,-2.79876 -10.53272,-5.49354 -0.56898,-0.67479 -1.09956,-1.22667 -1.17903,-1.2264 -0.0795,2.3e-4 -0.14915,1.39731 -0.15484,3.10454 -0.009,2.6685 -0.0948,3.3406 -0.61233,4.78947 -1.00483,2.81311 -1.19112,2.42557 -1.13315,-2.35738 0.0401,-3.30585 -0.0227,-4.32693 -0.28532,-4.64652 -0.51501,-0.62657 -0.86187,-0.19042 -2.58784,3.25394 -1.40306,2.79994 -1.65581,3.15312 -2.84058,3.9691 -0.71527,0.49263 -1.37851,0.89569 -1.47388,0.89569 -0.0953,0 0.41746,-1.12313 1.13961,-2.49583 1.76164,-3.34864 1.91483,-4.00849 1.58011,-6.80659 -0.40722,-3.40414 -0.75187,-3.39458 -1.67274,0.0463 -0.69362,2.59185 -2.07545,5.36015 -2.67556,5.36015 -0.10468,0 -0.26331,-1.06833 -0.35254,-2.37408 -0.34598,-5.06356 -1.92679,-9.82832 -2.34593,-7.07094 -0.0863,0.56761 -0.26536,0.82151 -0.61472,0.87156 -1.16283,0.16657 -2.58678,-2.32613 -4.96998,-8.70021 -1.28054,-3.42489 -1.6909,-4.24345 -2.84067,-5.66652 -0.73916,-0.91483 -1.44267,-1.6023 -1.56337,-1.52771 -0.2505,0.15482 -0.21633,0.25139 1.32801,3.75367 1.42262,3.22624 2.08636,5.37657 2.08636,6.7592 0,2.00727 -0.69693,0.95713 -2.25853,-3.40317 -0.48987,-1.36781 -0.78335,-0.53179 -0.96727,2.75546 -0.1778,3.17791 -0.44263,4.16405 -0.91358,3.40202 -0.12274,-0.1986 -0.2959,-0.9647 -0.3848,-1.70243 -0.33367,-2.76933 -0.6873,-2.47684 -1.66403,1.37636 -0.87033,3.43342 -1.05896,5.7283 -0.5364,6.52584 0.22273,0.33992 0.63499,0.61804 0.91615,0.61804 0.37449,0 0.44708,0.0814 0.27146,0.30437 -0.13185,0.1674 -0.31775,0.63309 -0.41311,1.03486 -0.56149,2.36577 -2.54883,2.4168 -6.22465,0.15984 -1.6581,-1.01808 -1.62209,-0.65117 0.1654,1.68512 0.76058,0.9941 2.35953,2.95797 3.55321,4.36416 2.1303,2.50955 3.0174,3.81545 2.76397,4.06887 -0.17286,0.17287 -3.07419,-1.19582 -5.02843,-2.37214 -3.76063,-2.26365 -4.53272,-0.95696 -1.39495,2.36077 1.72025,1.81891 3.21796,2.69507 5.77823,3.38024 1.22474,0.32776 2.43945,0.70973 2.69934,0.84882 1.38801,0.74284 -0.56022,1.61057 -3.05813,1.36209 -1.08006,-0.10745 -2.10797,-0.46971 -3.94255,-1.38949 -3.5012,-1.75535 -3.83556,-1.39688 -1.55983,1.6724 2.02896,2.73646 2.79623,3.93479 2.62742,4.10359 -0.0803,0.0803 -0.5615,0.0681 -1.06933,-0.0272 -0.70874,-0.13296 -1.23477,-0.51334 -2.26368,-1.63691 -2.70225,-2.95087 -4.023,-2.80148 -4.9598,0.56101 -0.20111,0.72182 -0.43944,1.89777 -0.52963,2.6132 -0.15825,1.25525 -0.14658,1.2915 0.33293,1.03487 0.27331,-0.14627 0.54738,-0.26594 0.60907,-0.26594 0.0616,0 -0.36941,0.93584 -0.95797,2.07965 -1.2463,2.42203 -1.35025,3.32595 -0.45029,3.91563 0.56204,0.36826 0.89166,0.3767 3.53438,0.0905 2.98939,-0.32376 3.61162,-0.26224 2.63486,0.2605 -1.8549,0.99271 -6.02595,1.28894 -7.49198,0.53209 -0.61893,-0.31953 -0.93682,-0.72946 -1.27424,-1.64322 -0.45848,-1.2416 -1.1979,-2.06971 -1.84806,-2.06971 -0.67981,0 -1.85099,1.57968 -3.12724,4.218 -1.61642,3.34154 -2.82041,4.73927 -2.71145,3.14773 0.0345,-0.50363 -0.0598,-0.66123 -0.38028,-0.63579 -0.23436,0.0186 -0.42612,-0.0119 -0.42612,-0.0678 0,-0.19245 1.5213,-3.11494 2.09247,-4.01972 l 0.57212,-0.9063 -0.74223,-0.62456 c -0.40824,-0.3435 -0.83628,-0.62455 -0.9512,-0.62455 -0.73506,0 -1.82293,0.79214 -4.02096,2.92788 -1.68314,1.63545 -2.68127,2.42902 -3.05514,2.42902 -0.63668,0 -3.63486,-2.89055 -3.63486,-3.50439 0,-0.79978 1.4363,-1.21373 4.38291,-1.26319 2.49258,-0.0418 2.97409,-0.1236 4.38322,-0.74427 4.76434,-2.09855 8.41397,-5.46202 10.53244,-9.7066 1.02547,-2.05465 1.93339,-4.81944 1.91903,-5.84389 -0.033,-2.35697 -2.08316,-7.70703 -3.45809,-9.02429 -1.09572,-1.04977 -2.04442,-0.92752 -3.2588,0.41989 -0.98819,1.09644 -2.21194,1.95112 -3.23906,2.26217 -0.30133,0.0912 -0.54787,0.072 -0.54787,-0.0429 0,-0.11481 0.91873,-1.41806 2.04162,-2.89611 2.26029,-2.9752 2.929,-4.10612 2.7318,-4.62001 -0.23218,-0.60504 -1.06084,-0.36969 -2.21478,0.62902 -0.61786,0.53478 -1.35159,1.09444 -1.6305,1.2437 -0.47156,0.25237 -0.49534,0.22262 -0.33929,-0.42444 0.0923,-0.38271 0.99777,-2.15188 2.01215,-3.9315 1.0144,-1.77962 1.78629,-3.29375 1.71532,-3.36472 -0.071,-0.071 -0.64128,0.26197 -1.26735,0.73985 -1.20298,0.91826 -1.93587,1.09564 -2.15607,0.52181 -0.35973,-0.93744 1.41419,-4.7578 3.0652,-6.60127 0.59539,-0.66481 1.22258,-1.63662 1.39376,-2.15959 0.74132,-2.26494 3.68933,-4.11324 9.74484,-6.10968 4.49787,-1.48291 5.35689,-1.90731 5.35689,-2.64648 0,-0.31132 -0.22094,-0.766 -0.49097,-1.01039 -0.4453,-0.40298 -0.63875,-0.41711 -2.07902,-0.15172 -4.0896,0.75354 -9.05593,2.9273 -17.15311,7.50795 -7.15344,4.04675 -7.61756,4.24631 -6.73178,2.89445 1.05282,-1.60682 6.24422,-5.08298 11.76407,-7.87723 1.95732,-0.99083 2.75771,-1.52171 2.75847,-1.82961 0.003,-1.33108 -1.65397,-0.67336 -8.00485,3.17682 -5.07398,3.07607 -9.03231,5.17053 -9.77183,5.17053 -0.6342,0 -0.68777,0.19454 -0.33529,1.21762 0.76209,2.212 0.98419,9.18403 0.28514,8.951 -0.13598,-0.0453 -0.54289,-0.95474 -0.90424,-2.02095 -0.82823,-2.44374 -1.39274,-3.52126 -1.8448,-3.52126 -0.46264,0 -0.5489,0.49691 -0.71857,4.13942 -0.11823,2.53828 -0.24862,3.29757 -0.7852,4.57264 -0.35389,0.84092 -0.7626,1.48951 -0.90824,1.44132 -0.14565,-0.0481 -0.34008,-1.01016 -0.43206,-2.13769 -0.21246,-2.60449 -0.62942,-4.76162 -1.10166,-5.69938 -0.5278,-1.04808 -1.54808,-2.07281 -2.06385,-2.07281 -0.24279,0 -0.44143,-0.16155 -0.44143,-0.35899 0,-0.40916 -1.35876,-1.19389 -1.70098,-0.98239 -0.41019,0.25351 0.0362,0.85074 0.77992,1.04347 0.77943,0.20196 1.2399,1.08417 1.86814,3.57914 0.5641,2.24026 -0.25779,2.00436 -4.43872,-1.27401 -1.45168,-1.13829 -3.21919,-2.46647 -3.92779,-2.95153 -0.7086,-0.48504 -2.01819,-1.52932 -2.91019,-2.32061 -2.17307,-1.92768 -2.40258,-1.61748 -1.00926,1.36415 1.08552,2.32296 1.53567,3.60523 1.26562,3.60523 -0.0785,0 -0.73513,-0.29053 -1.45914,-0.64562 -0.78618,-0.38558 -1.48811,-0.57973 -1.74273,-0.48202 -0.34788,0.1335 0.0183,0.62195 1.98958,2.65446 2.53448,2.6131 3.49736,4.11192 3.07515,4.7868 -0.63256,1.01109 -2.53334,0.35227 -4.72356,-1.63721 -1.8267,-1.65928 -3.59679,-2.97194 -4.0076,-2.97194 -0.68162,0 -0.31701,0.90124 1.71688,4.24377 2.14702,3.52845 3.48642,6.40379 4.01555,8.62028 0.41474,1.73736 0.10513,2.06299 -1.09279,1.1493 -1.50147,-1.14522 -3.17674,-3.77944 -3.74448,-5.88784 -0.15653,-0.58133 -0.70719,-1.4684 -1.32004,-2.1265 -1.99019,-2.13713 -2.40881,-1.17437 -1.12065,2.57733 0.41197,1.19984 0.70607,2.22449 0.65356,2.277 -0.0525,0.0525 -0.4282,-0.0301 -0.83487,-0.18362 -0.99881,-0.37701 -1.54242,-0.12754 -1.53856,0.70604 0.002,0.37249 0.49636,2.14578 1.0992,3.94066 0.60285,1.79488 1.04039,3.3191 0.97234,3.38715 -0.25784,0.25785 -1.19556,-0.88636 -3.1473,-3.84034 -2.84832,-4.31098 -3.47857,-5.52623 -3.66735,-7.07138 -0.4418,-3.61597 -1.08356,-3.79779 -2.7037,-0.766 -0.93417,1.74814 -2.44735,3.42732 -3.50277,3.88703 -0.69565,0.303 -0.7686,0.39285 -0.37608,0.46314 1.76454,0.316 1.76901,0.29075 -0.2457,1.38612 -1.05479,0.57347 -2.08352,1.29229 -2.28608,1.59736 -0.34374,0.51769 -0.32505,0.59189 0.28034,1.11261 l 0.64863,0.55793 -0.701,0.24438 c -1.2759,0.44479 -1.71387,1.11117 -1.71387,2.60778 0,1.27463 -0.0442,1.37388 -0.78777,1.76535 -1.06082,0.55856 -2.68948,2.15776 -2.56817,2.52171 0.13468,0.40404 0.63573,0.6409 1.7246,0.81526 l 0.92536,0.14817 -1.22973,1.3455 c -1.68857,1.84758 -1.59965,2.28026 0.46861,2.28026 1.18131,0 1.4463,0.55316 0.72947,1.52272 -2.89395,3.91429 -1.94943,7.90415 2.27538,9.61168 1.46656,0.59273 0.73997,0.88026 -2.51792,0.99643 -4.09824,0.14611 -5.837681,-0.57224 -5.837681,-2.41088 0,-0.59061 0.860441,-2.51521 1.699581,-3.80156 0.30992,-0.47508 0.29834,-0.58969 -0.10454,-1.03487 -1.129642,-1.24824 -1.909259,-0.30171 -3.197717,3.88231 -1.159789,3.7662 -1.772557,5.27947 -2.476623,6.11621 -0.664781,0.79004 -0.865202,0.8132 -2.72094,0.3143 z m 136.713474,-9.50222 c 0.54734,-0.35862 0.83506,-1.06771 0.43324,-1.06771 -0.24293,0 -1.29404,1.02339 -1.29404,1.25991 0,0.29167 0.18557,0.25023 0.8608,-0.1922 z m -53.26335,-27.72482 c 0.93025,-0.78276 1.68819,-2.5744 2.0363,-4.81347 l 0.27827,-1.78989 -1.07087,-2.04546 c -0.58897,-1.125 -1.20451,-2.08654 -1.36785,-2.13673 -0.2275,-0.0699 -0.28447,0.9527 -0.2435,4.37035 0.0524,4.36517 0.0399,4.48925 -0.57888,5.73997 -0.56754,1.14728 -0.58818,1.27835 -0.20131,1.27835 0.2371,0 0.75363,-0.2714 1.14784,-0.60312 z m 4.4945,-3.5363 c 0.32645,-0.65349 0.42017,-1.42007 0.40185,-3.28718 -0.0132,-1.33923 -0.0951,-2.68043 -0.18225,-2.98044 -0.25349,-0.87323 -2.99211,-4.50999 -3.22261,-4.27949 -0.11618,0.11618 0.23773,1.55745 0.79741,3.24741 0.864,2.60889 1.00934,3.34841 1.02783,5.22999 0.0118,1.2053 -0.0761,2.39286 -0.19535,2.639 -0.18322,0.37805 -0.1265,0.43476 0.36524,0.36525 0.37809,-0.0534 0.73137,-0.38103 1.00788,-0.93454 z m -56.10909,-3.32928 c -0.0885,-0.74724 -0.61363,-1.03797 -0.83464,-0.46204 -0.15473,0.40323 0.28005,1.11288 0.68184,1.11288 0.12642,0 0.19518,-0.29288 0.1528,-0.65084 z m 68.71015,-5.78745 c -2.7e-4,-1.3785 -1.05191,-3.45951 -3.20657,-6.34521 -2.08944,-2.79834 -5.07208,-5.33143 -5.07208,-4.30759 0,0.10838 1.2958,1.91198 2.87955,4.00797 2.96495,3.92396 4.66298,6.8047 4.67655,7.93386 0.008,0.61936 0.0218,0.62609 0.36525,0.17194 0.19662,-0.25996 0.35741,-0.9174 0.3573,-1.46097 z m -42.38602,-2.54115 c 0.80195,-0.2241 0.91192,-0.71031 0.22014,-0.97332 -0.31238,-0.11877 -1.88271,-0.39144 -3.48959,-0.60592 -2.40814,-0.32144 -3.21927,-0.54236 -4.61518,-1.25692 -1.75871,-0.90029 -2.63098,-1.00484 -2.75934,-0.33076 -0.1778,0.93367 2.10612,2.65417 4.18083,3.14947 0.94984,0.22676 5.66855,0.23949 6.46314,0.0175 z m 3.80905,-2.97905 c 0.24487,-0.3962 -0.23458,-0.61282 -2.6863,-1.21373 -4.24639,-1.04079 -5.99493,-1.74663 -7.66945,-3.09598 -1.79282,-1.44467 -2.85027,-1.6994 -2.57972,-0.62144 0.48896,1.94817 3.06086,3.90801 6.22253,4.74167 1.84542,0.4866 6.44901,0.61654 6.71294,0.18948 z m 30.54183,-0.68554 c 0,-0.3101 -1.74253,-1.72219 -2.12519,-1.72219 -0.41825,0 -0.38183,0.26355 0.12176,0.88139 0.69169,0.84859 2.00343,1.39911 2.00343,0.8408 z m -25.48612,-2.34893 c 0.52747,-0.20242 0.51823,-0.52239 -0.02,-0.69297 -0.23436,-0.0742 -1.68621,-0.35767 -3.22631,-0.62976 -2.38274,-0.42097 -3.20577,-0.69865 -5.52069,-1.8626 -2.56138,-1.28788 -3.48863,-1.49634 -3.48863,-0.78427 0,0.42731 1.70609,1.97337 3.04075,2.75553 2.34229,1.37267 3.40528,1.62726 6.23208,1.49263 1.41719,-0.0675 2.75946,-0.19285 2.98281,-0.27856 z m -44.3348,-1.10965 c -0.13096,-0.50082 -0.69878,-0.87363 -0.9492,-0.62321 -0.0745,0.0745 -1.9e-4,0.54556 0.1652,1.04671 0.26859,0.81383 0.33348,0.8664 0.60725,0.49199 0.1686,-0.23056 0.24814,-0.64253 0.17675,-0.91549 z m -16.940091,-2.65946 c 0.377006,-0.14104 1.466262,-1.02876 2.420571,-1.97271 1.53066,-1.51406 1.79416,-1.68467 2.23632,-1.44803 0.77448,0.41449 1.87294,0.31883 2.34639,-0.20431 0.38865,-0.42947 0.41126,-0.8562 0.2479,-4.67829 -0.17635,-4.12591 -0.19715,-4.24747 -1.09569,-6.40617 -0.50376,-1.210258 -1.00923,-2.171882 -1.12327,-2.136947 -0.11403,0.03494 -0.1662,1.705927 -0.11592,3.713307 0.066,2.63673 0.0139,3.64978 -0.18798,3.64978 -0.24299,0 -0.59888,-0.48976 -1.88372,-2.59234 -0.48627,-0.79576 -0.629579,-0.17815 -0.61236,2.63901 0.0295,4.81855 -0.536597,6.11176 -1.398485,3.19497 -0.430826,-1.45799 -2.162901,-8.28737 -2.566744,-10.120381 -0.28933,-1.313241 -0.625238,-0.65572 -0.625238,1.223861 0,4.58345 -0.857028,7.99611 -2.333676,9.29262 -0.764412,0.67115 -2.050787,1.02446 -2.048225,0.56255 5.6e-4,-0.10044 0.274034,-2.31929 0.607725,-4.93077 1.007973,-7.888453 0.732404,-9.57885 -0.811137,-4.97569 -0.929005,2.77049 -1.729453,4.0017 -2.60162,4.0017 -1.513591,0 -1.572917,-2.59195 -0.152743,-6.673301 1.513366,-4.349164 1.368353,-4.784931 -0.690912,-2.076225 -1.205405,1.58556 -2.056203,2.418653 -2.470054,2.418653 -0.09101,0 -0.01185,-0.510493 0.175927,-1.134427 0.402574,-1.337651 0.446374,-2.91138 0.08721,-3.133356 -0.717698,-0.443561 -2.260344,1.546921 -3.144366,4.057191 l -0.455369,1.293064 0.928991,0.553981 c 1.209104,0.72103 1.463763,1.51168 1.464887,4.54814 7.54e-4,2.02222 0.0867,2.60018 0.483411,3.25085 0.265376,0.43525 0.525657,0.79135 0.578403,0.79135 0.05274,0 0.710433,-0.28133 1.461526,-0.6252 0.751092,-0.34387 1.66831,-0.5904 2.038259,-0.54786 0.630687,0.0725 0.670059,0.14567 0.631317,1.17306 -0.02273,0.60266 -0.378837,1.9052 -0.791358,2.89457 -0.412523,0.98935 -0.750041,1.85354 -0.750041,1.92042 0,0.0669 0.68483,0.0653 1.521845,-0.003 1.099926,-0.0904 2.214214,-0.43714 4.019197,-1.25082 3.796983,-1.71167 4.134438,-1.54372 3.224628,1.60491 -0.472364,1.63472 -0.507191,1.97694 -0.219718,2.15895 0.448503,0.28395 0.77552,0.27729 1.60412,-0.0327 z m 29.631231,-0.11803 c 0.0833,-0.21699 -0.015,-0.43537 -0.23381,-0.51932 -0.45469,-0.17448 -0.95225,0.25836 -0.72313,0.62907 0.23894,0.38661 0.79076,0.32333 0.95694,-0.10975 z m -19.22829,-0.67482 c 0.60623,-0.44329 0.85158,-1.98636 0.86396,-5.43377 0.0109,-3.03979 0.17288,-4.47422 0.50519,-4.47422 0.10462,0 0.58049,0.54323 1.0575,1.20718 2.41456,3.3609 4.71406,2.01479 4.97385,-2.91166 0.0714,-1.35503 0.26682,-2.38165 0.56577,-2.97311 1.09208,-2.160547 0.34716,-3.487043 -1.94005,-3.45468 -1.17606,0.01664 -2.9602,0.587376 -2.9602,0.946951 0,0.05887 0.32399,0.617924 0.71998,1.242339 1.22705,1.93485 1.60492,4.74718 0.662,4.92698 -0.56941,0.10856 -1.17506,-0.44809 -2.25066,-2.06855 -0.64691,-0.9746 -1.00898,-1.29838 -1.45193,-1.29838 -1.20772,0 -1.64285,1.45245 -2.07901,6.93962 -0.26165,3.29162 -0.56856,5.10048 -1.05836,6.2375 -0.12093,0.28068 0.0613,0.54146 0.63537,0.909 0.94537,0.60531 1.17261,0.6318 1.75659,0.2048 z m -22.987964,-3.94237 c -0.213503,-0.25725 -0.401419,-0.30472 -0.563749,-0.14238 -0.162331,0.16232 -0.136744,0.37212 0.07676,0.62938 0.213503,0.25724 0.401419,0.30471 0.56375,0.14238 0.16233,-0.16233 0.136744,-0.37212 -0.07676,-0.62938 z m 154.233864,-1.25233 c 0.0845,-0.22005 0.10089,-0.45273 0.0365,-0.51707 -0.22648,-0.22648 -0.86846,0.17586 -0.86846,0.54429 0,0.4985 0.63818,0.47763 0.83191,-0.0272 z m 5.71554,-1.10801 c 2.53118,-1.21935 5.28202,-3.78897 6.22516,-5.81508 0.58978,-1.26701 0.88605,-3.890006 0.437,-3.869075 -0.10044,0.0047 -0.78527,0.956115 -1.52184,2.114315 -2.54046,3.99463 -6.45051,7.38599 -8.94732,7.76041 -1.14061,0.17105 -1.33327,0.49056 -0.48813,0.80951 0.88707,0.33478 2.12016,0.0477 4.29513,-1.00008 z m -120.74668,-4.83486 c 0,-0.14057 -0.17369,-0.59145 -0.38597,-1.00195 -0.2573,-0.49759 -0.46713,-0.66521 -0.62945,-0.50288 -0.16233,0.16232 -0.11276,0.49631 0.14872,1.00196 0.38132,0.7374 0.8667,1.01902 0.8667,0.50287 z m 14.25304,-1.388 c -0.18422,-1.26474 -0.96827,-2.777113 -2.11944,-4.088222 -1.85691,-2.1149 -2.50709,0.1078 -0.75072,2.566382 0.66752,0.93438 2.49428,2.65963 2.82836,2.67117 0.11564,0.004 0.13446,-0.5132 0.0418,-1.14933 z m 69.40188,-1.39235 c 0.45353,-0.34304 0.44615,-0.35782 -0.18259,-0.36525 -0.66117,-0.008 -1.04583,0.27973 -0.75852,0.56703 0.23269,0.2327 0.4197,0.1926 0.94111,-0.20178 z m -50.8761,-0.66296 c 0.0986,-0.15949 0.1547,-0.763611 0.12473,-1.342499 -0.0579,-1.118054 0.0857,-1.271526 1.27478,-1.362925 0.35788,-0.0275 0.67602,-0.154296 0.70696,-0.281751 0.0887,-0.365323 -1.7374,-0.659969 -3.51741,-0.567546 -1.72656,0.08965 -2.63545,0.584567 -2.63545,1.435086 0,0.495497 1.16801,1.456 2.43494,2.002365 1.06698,0.46012 1.38524,0.48328 1.61145,0.11727 z m -30.10037,-0.889768 c 0,-0.584761 -0.85514,-1.352925 -1.31126,-1.177893 -0.49227,0.188898 -0.23051,1.025068 0.41928,1.339391 0.758,0.36666 0.89198,0.34241 0.89198,-0.161498 z m 67.69165,-3.29494 c 0,-0.398631 -1.72915,-1.176403 -3.80932,-1.713442 -1.51195,-0.390337 -5.65494,-0.526585 -7.11753,-0.234067 -0.4185,0.0837 -0.76092,0.28984 -0.76092,0.458085 0,0.414887 1.45068,0.742568 5.35689,1.210023 1.80796,0.216357 3.50634,0.428245 3.77418,0.470859 1.37282,0.21842 2.5567,0.129765 2.5567,-0.191458 z M 79.832722,94.623521 c -0.213502,-0.257255 -0.401419,-0.304716 -0.563749,-0.142386 -0.16233,0.162329 -0.136744,0.372122 0.07676,0.629377 0.213502,0.257255 0.401419,0.304717 0.563749,0.142386 0.16233,-0.162328 0.136744,-0.372122 -0.07675,-0.629377 z m 6.817755,-1.817634 c 0.599178,-0.460326 0.602013,-0.478786 0.182621,-1.188759 -0.545466,-0.923402 -0.535942,-1.480638 0.06099,-3.567976 0.514494,-1.799093 0.605161,-2.559438 0.304368,-2.552467 -0.100441,0.0024 -0.934925,0.66534 -1.854408,1.47336 -0.919483,0.808019 -1.71478,1.426131 -1.767328,1.373586 -0.05255,-0.05255 0.288858,-0.927525 0.75868,-1.944393 1.369991,-2.965164 0.982246,-4.950193 -1.051907,-5.385167 -0.558697,-0.119472 -1.015813,-0.358004 -1.015813,-0.530075 0,-0.172074 0.541566,-0.731761 1.20348,-1.243753 1.043403,-0.807077 1.240067,-1.10113 1.478541,-2.210723 0.342994,-1.595918 0.251932,-2.109181 -0.390582,-2.201464 -1.433914,-0.205955 -5.456877,6.461738 -5.456877,9.044272 0,1.252768 0.466032,1.696495 1.661989,1.582445 0.559052,-0.05332 1.016458,-0.06895 1.016458,-0.03475 0,0.0342 -0.273933,0.878211 -0.608738,1.87558 -1.178669,3.511198 -0.59838,5.228883 1.892686,5.602441 0.632266,0.09481 1.251897,0.109149 1.376958,0.03185 0.125063,-0.07729 0.29621,-0.02918 0.380329,0.106936 0.243576,0.394114 1.166715,0.277521 1.828559,-0.230945 z m -8.167378,-2.426705 c 0.07705,-0.12467 0.03862,-0.289385 -0.08541,-0.366034 -0.287874,-0.177915 -0.999926,0.08931 -0.999926,0.37526 0,0.288176 0.906286,0.280473 1.08533,-0.0092 z m -1.694067,-7.443428 c 0,-0.326766 -0.189493,-0.513802 -0.575948,-0.568479 -0.701964,-0.09932 -1.124966,0.274498 -0.918739,0.811913 0.229779,0.598796 1.494687,0.392784 1.494687,-0.243434 z M 125.935,80.703183 c 0.30299,-0.302984 -0.6396,-1.054614 -1.32253,-1.054614 -1.00548,0 -1.09851,0.446743 -0.17643,0.847237 0.91046,0.395451 1.26223,0.444115 1.49896,0.207377 z M 86.21091,79.76371 c 0.203223,-0.446024 0.206964,-0.688748 0.0136,-0.882114 -0.319191,-0.319193 -1.639652,0.866411 -1.398871,1.256004 0.287014,0.464398 1.103768,0.243955 1.385275,-0.37389 z m -5.758382,-5.33922 c 0.645144,-0.645143 0.765693,-1.217705 0.315022,-1.496234 -0.290125,-0.17931 -1.908809,1.386819 -1.908809,1.846833 0,0.466111 0.996226,0.246963 1.593787,-0.350599 z m 42.093682,-0.03712 c 0.59279,-0.227474 0.45649,-0.582687 -0.22358,-0.582687 -0.37878,0 -0.60874,0.137981 -0.60874,0.365243 0,0.392991 0.22302,0.451255 0.83232,0.217444 z m -0.63464,-1.376841 c 0.0557,-0.288976 -0.0741,-0.423322 -0.40895,-0.423322 -0.55842,0 -0.86766,0.363673 -0.63263,0.743968 0.23698,0.383454 0.94815,0.164527 1.04158,-0.320646 z M 99.068839,67.652081 c 0,-0.701332 -1.120484,-2.369727 -1.591495,-2.369727 -1.033648,0 0.354563,2.871792 1.408874,2.914537 0.100442,0.0041 0.182621,-0.241091 0.182621,-0.54481 z m 3.918101,-0.358356 c 0.31043,-0.816477 0.0753,-2.254866 -0.36864,-2.254866 -0.41565,0 -0.73517,0.414667 -1.0563,1.3708 -0.20727,0.617163 -0.18093,0.837078 0.13859,1.156602 0.57473,0.574719 0.99835,0.484964 1.28635,-0.272536 z M 91.639127,65.774378 c 0.08106,-0.131157 0.02386,-0.46926 -0.127105,-0.751341 -0.150966,-0.282082 -0.238051,-0.549309 -0.193523,-0.593839 0.04453,-0.04453 0.579303,0.03307 1.188388,0.172456 0.960207,0.219728 1.242499,0.184508 2.123455,-0.264923 1.357001,-0.692291 2.734031,-1.926666 2.734031,-2.450794 0,-0.233216 -0.230319,-0.632762 -0.511824,-0.887883 -0.450936,-0.408674 -0.984772,-0.47302 -4.487443,-0.540892 -3.869663,-0.07499 -3.983162,-0.06294 -4.258621,0.451756 -0.609603,1.139054 0.600189,3.609141 2.264767,4.624078 0.891635,0.543654 1.061118,0.575919 1.267875,0.241382 z m 18.782143,-1.092689 c 1.65085,-1.722919 2.18863,-4.434087 0.97215,-4.900899 -0.18948,-0.07271 -0.92323,0.03968 -1.63058,0.249735 -0.73253,0.217541 -2.18696,0.381926 -3.37916,0.381926 -2.37806,0 -3.17542,0.34831 -3.17542,1.387113 0,0.764272 0.96995,1.679105 3.16797,2.987947 2.13901,1.273706 2.73825,1.258028 4.04504,-0.105822 z m 7.10038,-6.907301 c 0.0728,-0.220729 -0.0711,-0.298778 -0.44885,-0.243494 -0.30575,0.04474 -0.60409,0.227549 -0.66298,0.406221 -0.0728,0.22073 0.0711,0.298778 0.44885,0.243495 0.30575,-0.04474 0.60409,-0.227549 0.66298,-0.406222 z m -13.1415,-0.94093 c 0.095,-0.66813 -0.34988,-1.534405 -0.78811,-1.534405 -0.35914,0 -0.74963,1.552995 -0.49437,1.966027 0.27821,0.450146 1.20122,0.139504 1.28248,-0.431622 z m -7.30321,-1.492604 c 0.08801,-0.59807 -0.463729,-0.725421 -0.894433,-0.206454 -0.195503,0.235564 -0.189598,0.400255 0.02192,0.611782 0.400651,0.400649 0.77983,0.224498 0.872507,-0.405328 z"
       id="path2859"
       sodipodi:nodetypes="cssscsssssssssssscssssssssssssssssssscssssssssssscssssssssssssssssssssssssssssssssssssssssssssssssssssssssssscssssssssssscssssssssssssssssssssssssssssssccssssssssssssssssssssscssscssssssssssssssssssssssssssssscssssssssssscsssssssssssssssscssssssssssssscssssssssssssssssssssssssscsssssscsssssssssssscssssssssssscssssssscssssssssssssscssssssssssssscsssssssssssssssssssssssssssssssssssssccsssssssssssssssssssssssssssssssssssssssssssssssssssssssscssssssssssssssssssssssssssssssscsssssssscsssssssssssssscssssssssssccsssssssssscssssscssssssssssccsssssscssssssssssssssssssssssscsssssssssssssssssssssssssssssssssscsssssssssssssssssssssssscssssscssscssscccsscsssscsssssssssssssssscssccssssssssssssssscsssssscsssssssssssssssssssssssssscsssssssssssssssssssssssssssssssssssssssssssssssscssssssssssssssssssssssssssssssssssssss" />
    <path
       style="font-variation-settings:normal;opacity:1;fill:#fff6d5;fill-opacity:1;stroke:#fff6d5;stroke-width:0.048699;stroke-linecap:butt;stroke-linejoin:miter;stroke-miterlimit:4;stroke-dasharray:none;stroke-dashoffset:0;stroke-opacity:1;paint-order:stroke fill markers;stop-color:#000000;stop-opacity:1"
       d="m 83.905079,131.32998 c -0.673691,-0.74443 -0.903396,-1.72631 -1.022768,-4.37181 -0.06394,-1.41694 -0.168871,-2.62888 -0.233193,-2.6932 -0.297453,-0.29746 -0.945501,0.29279 -1.782036,1.62309 -0.501936,0.7982 -1.335515,2.12448 -1.852395,2.94727 -0.878998,1.39923 -1.462735,1.93907 -1.767358,1.63445 -0.07119,-0.0712 0.06156,-1.32729 0.294987,-2.79134 0.563993,-3.53727 0.292686,-4.23429 -1.055775,-2.7124 -0.75793,0.85541 -2.887027,2.15834 -3.532558,2.1618 -0.234364,9.8e-4 -0.426116,-0.0328 -0.426116,-0.0759 0,-0.043 0.449892,-1.272 0.99976,-2.73117 1.565931,-4.15548 1.182918,-5.90772 -1.499596,-6.86046 -0.814932,-0.28944 -1.200859,-0.5864 -1.380474,-1.06227 -0.602346,-1.5958 -2.250536,-1.85123 -5.441271,-0.84328 -2.191263,0.69223 -2.816855,0.63864 -3.16266,-0.2709 -0.384523,-1.01137 -0.261453,-1.765 0.379191,-2.32203 0.771148,-0.6705 0.772947,-1.48322 0.0063,-2.82424 -1.488276,-2.60312 -4.580929,-5.34794 -6.771294,-6.00972 -1.337559,-0.40411 -1.797537,-0.30742 -2.512223,0.5281 -0.479173,0.56019 -0.579028,0.58063 -1.582718,0.32384 -2.910691,-0.74468 -3.193724,-1.36892 -1.010405,-2.2285 1.21836,-0.47968 1.858393,-0.55306 4.930777,-0.56537 3.297819,-0.0132 3.610031,0.026 4.733807,0.59461 0.976485,0.49406 1.26426,0.79085 1.527663,1.57546 0.36477,1.08658 1.293099,2.16519 2.382608,2.76832 0.606387,0.33568 1.288934,0.38869 4.017671,0.31207 7.216454,-0.20266 7.056156,-0.21164 7.570203,0.42365 0.818614,1.01169 0.630271,2.58929 -0.509423,4.26705 -1.643908,2.42004 -1.233254,3.37362 1.583298,3.67661 2.763271,0.29724 3.934975,0.6149 4.504585,1.22123 0.505187,0.53774 0.537844,0.73209 0.384516,2.28813 -0.340212,3.45261 0.50701,4.58654 2.870255,3.8416 1.904451,-0.60033 2.010211,-0.56279 2.795921,0.99258 0.389,0.77005 0.884452,1.72882 1.101002,2.13058 0.648075,1.20238 0.505109,1.79117 -0.69043,2.84352 -0.744954,0.65575 -1.136711,1.22108 -1.244575,1.79605 -0.149993,0.79953 -0.206004,0.83908 -1.188302,0.83908 -0.672975,0 -1.16492,-0.1481 -1.416925,-0.42656 z"
       id="path2898" />
    <path
       style="font-variation-settings:normal;opacity:1;fill:#fff6d5;fill-opacity:1;stroke:#fff6d5;stroke-width:0.0172177;stroke-linecap:butt;stroke-linejoin:miter;stroke-miterlimit:4;stroke-dasharray:none;stroke-dashoffset:0;stroke-opacity:1;paint-order:stroke fill markers;stop-color:#000000;stop-opacity:1"
       d="m 99.743976,86.615195 c -2.558706,-0.430774 -3.376802,-1.340133 -2.233868,-2.483066 0.787765,-0.787767 2.138584,-1.421515 3.531542,-1.656853 1.31233,-0.221718 2.24868,0.01705 2.6916,0.686363 0.2033,0.307198 0.22906,0.42916 0.22906,1.084175 0,1.108939 -0.12679,1.439361 -0.71662,1.867524 -0.45536,0.330551 -0.55599,0.364278 -1.47863,0.495612 -1.13198,0.161132 -1.10362,0.161044 -2.023084,0.0063 z"
       id="path2937" />
    <path
       style="font-variation-settings:normal;opacity:1;fill:#fff6d5;fill-opacity:1;stroke:#fff6d5;stroke-width:0.0243496;stroke-linecap:butt;stroke-linejoin:miter;stroke-miterlimit:4;stroke-dasharray:none;stroke-dashoffset:0;stroke-opacity:1;paint-order:stroke fill markers;stop-color:#000000;stop-opacity:1"
       d="m 48.390896,113.72393 c -0.619673,-0.0963 -1.249717,-0.22199 -1.400097,-0.27932 -0.168988,-0.0645 -0.471048,-0.47561 -0.790846,-1.07654 -0.284586,-0.53475 -0.517428,-1.00455 -0.517428,-1.044 0,-0.0395 0.424595,0.14871 0.943544,0.41814 1.633429,0.84803 2.509103,0.80696 3.479249,-0.16318 1.031392,-1.03139 2.641451,-1.69519 3.651925,-1.50564 0.608722,0.11421 1.102141,0.71759 1.01681,1.24342 -0.163901,1.01 -1.062134,1.5674 -2.531769,1.5711 -0.891651,0.002 -0.940374,0.0174 -1.25326,0.38921 -0.50151,0.59601 -1.040944,0.68878 -2.598128,0.44681 z"
       id="path2976" />
    <path
       style="font-variation-settings:normal;opacity:1;fill:#fff6d5;fill-opacity:1;stroke:#fff6d5;stroke-width:0.0243496;stroke-linecap:butt;stroke-linejoin:miter;stroke-miterlimit:4;stroke-dasharray:none;stroke-dashoffset:0;stroke-opacity:1;paint-order:stroke fill markers;stop-color:#000000;stop-opacity:1"
       d="m 49.132995,118.29944 c -1.058292,-0.18967 -2.719984,-0.93686 -2.719984,-1.22307 0,-0.28339 0.905753,-1.08177 1.436063,-1.26582 1.370641,-0.47571 3.895643,-0.31535 6.003405,0.38127 1.088531,0.35977 2.056843,0.92003 2.056843,1.19009 0,0.25742 -0.721658,0.42965 -2.130583,0.50846 -0.669612,0.0374 -1.464014,0.14734 -1.765339,0.24417 -0.711537,0.22865 -2.085732,0.30732 -2.880405,0.1649 z"
       id="path3015" />
    <path
       style="font-variation-settings:normal;opacity:1;fill:#fff6d5;fill-opacity:1;stroke:#fff6d5;stroke-width:0.0344354;stroke-linecap:butt;stroke-linejoin:miter;stroke-miterlimit:4;stroke-dasharray:none;stroke-dashoffset:0;stroke-opacity:1;paint-order:stroke fill markers;stop-color:#000000;stop-opacity:1"
       d="m 50.706541,121.82586 c -1.012296,-0.69873 -0.771435,-0.85858 1.274442,-0.84581 1.674778,0.0104 4.352315,0.4427 4.686053,0.75649 0.07673,0.0722 -0.775549,0.18249 -1.893949,0.2452 -1.1184,0.0627 -2.343373,0.15513 -2.722162,0.20537 -0.555404,0.0736 -0.815619,0.004 -1.344384,-0.36125 z"
       id="path3130" />
    <path
       style="font-variation-settings:normal;opacity:1;fill:#fff6d5;fill-opacity:1;stroke:#fff6d5;stroke-width:0.0172177;stroke-linecap:butt;stroke-linejoin:miter;stroke-miterlimit:4;stroke-dasharray:none;stroke-dashoffset:0;stroke-opacity:1;paint-order:stroke fill markers;stop-color:#000000;stop-opacity:1"
       d="m 110.51233,156.32973 c 0.12551,-0.55435 0.82652,-2.5664 1.19331,-3.42508 0.40223,-0.94162 0.92104,-1.87703 1.10778,-1.9973 0.0562,-0.0361 0.32185,-0.35631 0.59042,-0.71143 0.56349,-0.74505 1.17861,-1.40506 1.43975,-1.54481 0.15333,-0.082 0.18111,-0.0729 0.18111,0.0602 0,0.88771 -1.26975,3.79749 -2.37384,5.43997 -0.48096,0.71547 -1.98573,2.4152 -2.13819,2.4152 -0.0297,0 -0.0298,-0.10653 -3.4e-4,-0.23674 z"
       id="path3169" />
    <path
       style="font-variation-settings:normal;opacity:1;fill:#fff6d5;fill-opacity:1;stroke:#fff6d5;stroke-width:0.0172177;stroke-linecap:butt;stroke-linejoin:miter;stroke-miterlimit:4;stroke-dasharray:none;stroke-dashoffset:0;stroke-opacity:1;paint-order:stroke fill markers;stop-color:#000000;stop-opacity:1"
       d="m 82.974159,176.15658 c -0.73607,-0.26256 -1.471951,-0.88663 -2.226921,-1.88855 l -0.523668,-0.69496 0.376177,-0.33383 c 1.053876,-0.93523 3.00029,-1.9554 5.932399,-3.10935 1.063828,-0.41868 2.389424,-0.94709 2.945772,-1.17424 0.556347,-0.22715 1.01154,-0.39432 1.01154,-0.37147 0,0.0229 -0.07855,0.19552 -0.174551,0.3837 -0.190909,0.37421 -0.147342,0.56942 0.177932,0.79725 0.168407,0.11796 0.153179,0.14758 -0.456046,0.88682 -0.346648,0.42064 -1.034565,1.26842 -1.528702,1.88395 -2.535926,3.15893 -4.050468,4.14984 -5.533932,3.62068 z m -0.456834,-2.06106 c 0.122049,-0.24997 0.143321,-0.39093 0.08431,-0.55873 -0.111174,-0.31612 -0.334545,-0.32451 -0.635201,-0.0238 -0.290449,0.29046 -0.321115,0.48719 -0.120561,0.77353 0.20229,0.28881 0.475093,0.21123 0.671453,-0.19094 z"
       id="path3208" />
    <path
       style="font-variation-settings:normal;opacity:1;fill:#fff6d5;fill-opacity:1;stroke:#fff6d5;stroke-width:0.0172177;stroke-linecap:butt;stroke-linejoin:miter;stroke-miterlimit:4;stroke-dasharray:none;stroke-dashoffset:0;stroke-opacity:1;paint-order:stroke fill markers;stop-color:#000000;stop-opacity:1"
       d="m 75.882506,172.31686 c -0.454532,-0.0899 -0.852664,-0.29389 -0.920987,-0.47194 -0.26784,-0.69798 2.29317,-2.31941 3.84142,-2.43209 l 0.581097,-0.0423 -3.68e-4,0.24831 c -5.07e-4,0.34143 -0.36353,0.86854 -1.307009,1.89779 l -0.801791,0.8747 -0.516531,-0.002 c -0.284093,-9.4e-4 -0.678216,-0.0337 -0.875831,-0.0728 z"
       id="path3364" />
    <path
       style="font-variation-settings:normal;opacity:1;fill:#fff6d5;fill-opacity:1;stroke:#fff6d5;stroke-width:0.00860885;stroke-linecap:butt;stroke-linejoin:miter;stroke-miterlimit:4;stroke-dasharray:none;stroke-dashoffset:0;stroke-opacity:1;paint-order:stroke fill markers;stop-color:#000000;stop-opacity:1"
       d="m 91.046343,169.2753 c 0.07019,-0.43194 0.04363,-0.66406 -0.09014,-0.78804 -0.06289,-0.0583 -0.106479,-0.11329 -0.09685,-0.1222 0.0097,-0.009 0.290838,-0.15279 0.624909,-0.31971 1.110693,-0.55493 1.87287,-1.06232 2.518063,-1.67631 0.21174,-0.20149 0.393052,-0.35829 0.402915,-0.34842 0.0099,0.01 -9.47e-4,0.10196 -0.02402,0.20465 -0.04321,0.19234 -0.02091,0.349 0.0497,0.349 0.09868,0 0.02331,0.0771 -0.164316,0.1681 -0.655316,0.31783 -1.574619,1.04253 -2.498127,1.96931 -0.385567,0.38693 -0.710891,0.70351 -0.722943,0.70351 -0.01205,0 -0.01168,-0.0629 8.19e-4,-0.13989 z"
       id="path3479" />
    <path
       style="font-variation-settings:normal;opacity:1;fill:#fff6d5;fill-opacity:1;stroke:#fff6d5;stroke-width:0.00860885;stroke-linecap:butt;stroke-linejoin:miter;stroke-miterlimit:4;stroke-dasharray:none;stroke-dashoffset:0;stroke-opacity:1;paint-order:stroke fill markers;stop-color:#000000;stop-opacity:1"
       d="m 95.805426,162.72222 c 0,-0.0343 0.835141,-1.94017 1.070573,-2.44318 0.11912,-0.25449 0.23689,-0.46273 0.261712,-0.46273 0.02482,0 0.04514,0.0105 0.04514,0.0232 0,0.13472 -0.655907,2.62713 -0.704021,2.67524 -0.01496,0.0149 -0.06467,-0.007 -0.110472,-0.0481 -0.109708,-0.0993 -0.224954,-0.0592 -0.367594,0.12778 -0.09898,0.12978 -0.19533,0.19284 -0.19533,0.12786 z"
       id="path3518" />
    <path
       style="font-variation-settings:normal;opacity:1;fill:#fff6d5;fill-opacity:1;stroke:#fff6d5;stroke-width:0.0172177;stroke-linecap:butt;stroke-linejoin:miter;stroke-miterlimit:4;stroke-dasharray:none;stroke-dashoffset:0;stroke-opacity:1;paint-order:stroke fill markers;stop-color:#000000;stop-opacity:1"
       d="m 165.93531,160.38151 c 0.0261,-0.0859 0.11033,-0.46506 0.18718,-0.84248 0.31484,-1.54635 0.82076,-2.68966 1.28351,-2.9005 0.60695,-0.27655 0.81073,0.85665 0.35164,1.95542 -0.0697,0.1668 -0.34706,0.53428 -0.61638,0.81662 -0.26931,0.28235 -0.45964,0.51336 -0.42296,0.51336 0.13876,0 -0.17154,0.27771 -0.49428,0.44235 -0.31613,0.16129 -0.33334,0.16219 -0.28871,0.0152 z"
       id="path3557" />
    <path
       style="font-variation-settings:normal;opacity:1;fill:#fff6d5;fill-opacity:1;stroke:#fff6d5;stroke-width:0.0121747;stroke-linecap:butt;stroke-linejoin:miter;stroke-miterlimit:4;stroke-dasharray:none;stroke-dashoffset:0;stroke-opacity:1;paint-order:stroke fill markers;stop-color:#000000;stop-opacity:1"
       d="m 130.10465,89.861236 c -0.14688,-0.351535 -0.014,-1.117829 0.21882,-1.26171 0.1391,-0.08596 0.48769,0.543756 0.59329,1.071782 0.0288,0.143955 0.002,0.180003 -0.21488,0.290723 -0.36623,0.186836 -0.48546,0.166714 -0.59723,-0.100795 z"
       id="path3635" />
    <path
       style="font-variation-settings:normal;opacity:1;fill:#fff6d5;fill-opacity:1;stroke:#fff6d5;stroke-width:0.0121747;stroke-linecap:butt;stroke-linejoin:miter;stroke-miterlimit:4;stroke-dasharray:none;stroke-dashoffset:0;stroke-opacity:1;paint-order:stroke fill markers;stop-color:#000000;stop-opacity:1"
       d="m 216.06673,173.01332 c -0.44605,-0.50576 -0.57363,-0.81973 -0.57531,-1.41579 -9.8e-4,-0.46239 0.0196,-0.56093 0.19385,-0.91311 0.25678,-0.51904 0.65419,-0.96208 1.17151,-1.30599 0.65416,-0.43488 1.33638,-0.62438 1.64782,-0.45771 0.4275,0.22879 -0.0195,1.42477 -1.04008,2.78248 -0.25841,0.34379 -0.47999,0.71407 -0.55059,0.9201 -0.0649,0.18963 -0.17912,0.39351 -0.25364,0.45305 -0.30673,0.24512 -0.32336,0.24336 -0.59356,-0.063 z"
       id="path8923" />
    <path
       style="font-variation-settings:normal;opacity:1;fill:#fff6d5;fill-opacity:1;stroke:#fff6d5;stroke-width:0.0121747;stroke-linecap:butt;stroke-linejoin:miter;stroke-miterlimit:4;stroke-dasharray:none;stroke-dashoffset:0;stroke-opacity:1;paint-order:stroke fill markers;stop-color:#000000;stop-opacity:1"
       d="m 228.27346,152.49658 c -0.6178,-0.10655 -1.60086,-0.38563 -2.25233,-0.63941 -0.75867,-0.29555 -0.81524,-0.30812 -1.36966,-0.3044 -0.4591,0.003 -0.75395,0.0494 -1.43053,0.22495 -0.82041,0.21282 -0.90426,0.22255 -2.24549,0.26056 -1.1812,0.0335 -1.38892,0.0265 -1.36477,-0.046 0.0567,-0.17013 0.40315,-0.29772 1.29811,-0.47809 3.93909,-0.7939 6.91506,-0.58612 7.40296,0.51686 0.14633,0.3308 0.13282,0.49501 -0.0383,0.4655 z"
       id="path8962" />
    <path
       style="font-variation-settings:normal;opacity:1;fill:#fff6d5;fill-opacity:1;stroke:#fff6d5;stroke-width:0.0121747;stroke-linecap:butt;stroke-linejoin:miter;stroke-miterlimit:4;stroke-dasharray:none;stroke-dashoffset:0;stroke-opacity:1;paint-order:stroke fill markers;stop-color:#000000;stop-opacity:1"
       d="m 238.68402,146.68394 c -0.18336,-0.18337 -0.2142,-0.25481 -0.2142,-0.49618 0,-0.32495 0.11123,-0.62514 0.29091,-0.78513 0.14997,-0.13355 0.30324,-0.0742 0.49147,0.19008 0.15632,0.21953 0.47713,1.14747 0.41737,1.20723 -0.0251,0.0251 -0.20897,0.0575 -0.40852,0.072 -0.3486,0.0252 -0.37122,0.0179 -0.57703,-0.18795 z"
       id="path9001" />
  </g>
  <path
     style="font-variation-settings:normal;opacity:1;fill:#fff6d5;fill-opacity:1;stroke:#fff6d5;stroke-width:0.0243496;stroke-linecap:butt;stroke-linejoin:miter;stroke-miterlimit:4;stroke-dasharray:none;stroke-dashoffset:0;stroke-opacity:1;paint-order:stroke fill markers;stop-color:#000000;stop-opacity:1"
     d="m 144.57627,174.21601 c -0.17337,-0.18415 -0.50835,-0.68633 -0.74439,-1.11596 l -0.42918,-0.78115 1.42167,-1.49771 c 0.98397,-1.03661 1.50599,-1.49891 1.69559,-1.50161 0.15066,-0.002 0.27393,0.0141 0.27393,0.0359 0,0.0219 -0.14304,0.39174 -0.31786,0.82179 -0.17482,0.43006 -0.49641,1.47075 -0.71467,2.31265 -0.39621,1.52842 -0.59648,2.06082 -0.77519,2.06082 -0.0521,0 -0.23654,-0.15067 -0.4099,-0.3348 z"
     id="path8277" />
</svg>
